AlkalamiMaster-Regular.ufo
<glyph name="quotesingle" format="1">
  <advance width="298"/>
  <unicode hex="0027"/>
  <outline>
    <contour>
      <point x="95" y="477" type="curve"/>
      <point x="139" y="472" type="line"/>
      <point x="179" y="586"/>
      <point x="192" y="668"/>
      <point x="201" y="738" type="curve"/>
      <point x="181" y="747"/>
      <point x="155" y="753"/>
      <point x="128" y="753" type="curve" smooth="yes"/>
      <point x="109" y="753"/>
      <point x="89" y="749"/>
      <point x="71" y="741" type="curve"/>
      <point x="76" y="662"/>
      <point x="81" y="586"/>
    </contour>
  </outline>
</glyph>
<glyph name="hyphen" format="1">
  <advance width="348"/>
  <unicode hex="002D"/>
  <outline>
    <contour>
      <point x="300" y="310" type="line"/>
      <point x="48" y="310" type="line"/>
      <point x="48" y="227" type="line"/>
      <point x="300" y="227" type="line"/>
    </contour>
  </outline>
</glyph>
<glyph name="three" format="1">
  <advance width="509"/>
  <unicode hex="0033"/>
  <outline>
    <contour>
      <point x="242" y="-8" type="curve" smooth="yes"/>
      <point x="396" y="-8"/>
      <point x="484" y="103"/>
      <point x="484" y="212" type="curve" smooth="yes"/>
      <point x="484" y="297"/>
      <point x="434" y="381"/>
      <point x="304" y="409" type="curve"/>
      <point x="345" y="453"/>
      <point x="397" y="499"/>
      <point x="445" y="547" type="curve"/>
      <point x="435" y="620" type="line"/>
      <point x="367" y="618"/>
      <point x="308" y="617"/>
      <point x="238" y="617" type="curve" smooth="yes"/>
      <point x="178" y="617"/>
      <point x="111" y="618"/>
      <point x="53" y="620" type="curve"/>
      <point x="53" y="564"/>
      <point x="53" y="481"/>
      <point x="48" y="417" type="curve"/>
      <point x="97" y="417" type="line"/>
      <point x="111" y="452"/>
      <point x="121" y="484"/>
      <point x="134" y="514" type="curve"/>
      <point x="172" y="516"/>
      <point x="197" y="517"/>
      <point x="233" y="517" type="curve" smooth="yes"/>
      <point x="267" y="517"/>
      <point x="290" y="516"/>
      <point x="314" y="515" type="curve"/>
      <point x="276" y="456"/>
      <point x="245" y="421"/>
      <point x="173" y="346" type="curve"/>
      <point x="190" y="300" type="line"/>
      <point x="272" y="300"/>
      <point x="349" y="256"/>
      <point x="349" y="174" type="curve" smooth="yes"/>
      <point x="349" y="101"/>
      <point x="294" y="55"/>
      <point x="222" y="55" type="curve" smooth="yes"/>
      <point x="167" y="55"/>
      <point x="103" y="78"/>
      <point x="49" y="124" type="curve"/>
      <point x="30" y="80" type="line"/>
      <point x="102" y="10"/>
      <point x="181" y="-8"/>
    </contour>
  </outline>
</glyph>
<glyph name="four" format="1">
  <advance width="565"/>
  <unicode hex="0034"/>
  <outline>
    <contour>
      <point x="423" y="628" type="curve"/>
      <point x="369" y="628" type="line"/>
      <point x="260" y="468"/>
      <point x="132" y="328"/>
      <point x="15" y="198" type="curve"/>
      <point x="38" y="146" type="line"/>
      <point x="145" y="150"/>
      <point x="176" y="150"/>
      <point x="249" y="150" type="curve" smooth="yes"/>
      <point x="372" y="150"/>
      <point x="444" y="150"/>
      <point x="525" y="146" type="curve"/>
      <point x="525" y="228" type="line"/>
      <point x="449" y="221"/>
      <point x="438" y="220"/>
      <point x="318" y="220" type="curve" smooth="yes"/>
      <point x="255" y="220"/>
      <point x="182" y="221"/>
      <point x="148" y="228" type="curve"/>
      <point x="187" y="276"/>
      <point x="222" y="325"/>
      <point x="282" y="416" type="curve"/>
      <point x="282" y="329"/>
      <point x="284" y="272"/>
      <point x="284" y="203" type="curve" smooth="yes"/>
      <point x="284" y="135"/>
      <point x="284" y="85"/>
      <point x="280" y="10" type="curve"/>
      <point x="424" y="10" type="line"/>
      <point x="422" y="125"/>
      <point x="422" y="184"/>
      <point x="422" y="279" type="curve" smooth="yes"/>
      <point x="422" y="394"/>
      <point x="422" y="503"/>
    </contour>
    <contour>
      <point x="423" y="70" type="line"/>
      <point x="283" y="70" type="line"/>
      <point x="138" y="45" type="line"/>
      <point x="155" y="0" type="line"/>
      <point x="199" y="1"/>
      <point x="277" y="3"/>
      <point x="321" y="3" type="curve" smooth="yes"/>
      <point x="426" y="3"/>
      <point x="465" y="2"/>
      <point x="503" y="0" type="curve"/>
      <point x="520" y="45" type="line"/>
    </contour>
  </outline>
</glyph>
<glyph name="H" format="1">
  <advance width="773"/>
  <unicode hex="0048"/>
  <outline>
    <contour>
      <point x="335" y="660" type="line"/>
      <point x="299" y="658"/>
      <point x="241" y="655"/>
      <point x="188" y="655" type="curve" smooth="yes"/>
      <point x="126" y="655"/>
      <point x="74" y="657"/>
      <point x="32" y="660" type="curve"/>
      <point x="20" y="621" type="line"/>
      <point x="108" y="597" type="line"/>
      <point x="111" y="504"/>
      <point x="112" y="428"/>
      <point x="112" y="359" type="curve" smooth="yes"/>
      <point x="112" y="259"/>
      <point x="110" y="172"/>
      <point x="108" y="59" type="curve"/>
      <point x="20" y="38" type="line"/>
      <point x="33" y="0" type="line"/>
      <point x="74" y="1"/>
      <point x="122" y="3"/>
      <point x="183" y="3" type="curve" smooth="yes"/>
      <point x="248" y="3"/>
      <point x="299" y="2"/>
      <point x="335" y="0" type="curve"/>
      <point x="346" y="38" type="line"/>
      <point x="258" y="59" type="line"/>
      <point x="256" y="132"/>
      <point x="256" y="194"/>
      <point x="256" y="325" type="curve" smooth="yes"/>
      <point x="256" y="356"/>
      <point x="257" y="455"/>
      <point x="258" y="597" type="curve"/>
      <point x="346" y="621" type="line"/>
    </contour>
    <contour>
      <point x="552" y="368" type="line"/>
      <point x="494" y="364"/>
      <point x="435" y="362"/>
      <point x="378" y="362" type="curve" smooth="yes"/>
      <point x="325" y="362"/>
      <point x="273" y="364"/>
      <point x="222" y="367" type="curve"/>
      <point x="222" y="297" type="line"/>
      <point x="273" y="300"/>
      <point x="325" y="302"/>
      <point x="378" y="302" type="curve" smooth="yes"/>
      <point x="435" y="302"/>
      <point x="494" y="300"/>
      <point x="552" y="296" type="curve"/>
    </contour>
    <contour>
      <point x="742" y="660" type="line"/>
      <point x="706" y="658"/>
      <point x="649" y="655"/>
      <point x="596" y="655" type="curve" smooth="yes"/>
      <point x="534" y="655"/>
      <point x="480" y="657"/>
      <point x="439" y="660" type="curve"/>
      <point x="427" y="621" type="line"/>
      <point x="515" y="597" type="line"/>
      <point x="518" y="501"/>
      <point x="520" y="425"/>
      <point x="520" y="354" type="curve" smooth="yes"/>
      <point x="520" y="258"/>
      <point x="517" y="172"/>
      <point x="515" y="59" type="curve"/>
      <point x="427" y="38" type="line"/>
      <point x="440" y="0" type="line"/>
      <point x="481" y="1"/>
      <point x="530" y="3"/>
      <point x="592" y="3" type="curve" smooth="yes"/>
      <point x="655" y="3"/>
      <point x="706" y="2"/>
      <point x="742" y="0" type="curve"/>
      <point x="753" y="38" type="line"/>
      <point x="665" y="59" type="line"/>
      <point x="664" y="124"/>
      <point x="663" y="180"/>
      <point x="663" y="234" type="curve" smooth="yes"/>
      <point x="663" y="343"/>
      <point x="665" y="445"/>
      <point x="665" y="597" type="curve"/>
      <point x="753" y="621" type="line"/>
    </contour>
    <contour>
      <point x="387" y="333" type="move" name="center"/>
    </contour>
    <contour>
      <point x="391" y="660" type="move" name="top"/>
    </contour>
  </outline>
</glyph>
<glyph name="J" format="1">
  <advance width="396"/>
  <unicode hex="004A"/>
  <outline>
    <contour>
      <point x="246" y="-37"/>
      <point x="274" y="51"/>
      <point x="276" y="177" type="curve" smooth="yes"/>
      <point x="279" y="368"/>
      <point x="277" y="484"/>
      <point x="277" y="595" type="curve"/>
      <point x="366" y="621" type="line"/>
      <point x="354" y="660" type="line"/>
      <point x="319" y="658"/>
      <point x="282" y="656"/>
      <point x="204" y="656" type="curve" smooth="yes"/>
      <point x="122" y="656"/>
      <point x="85" y="658"/>
      <point x="39" y="660" type="curve"/>
      <point x="29" y="621" type="line"/>
      <point x="125" y="595" type="line"/>
      <point x="128" y="511"/>
      <point x="136" y="358"/>
      <point x="130" y="175" type="curve" smooth="yes"/>
      <point x="125" y="26"/>
      <point x="99" y="-47"/>
      <point x="5" y="-139" type="curve"/>
      <point x="39" y="-182" type="line"/>
    </contour>
    <contour>
      <point x="204" y="660" type="move" name="top"/>
    </contour>
  </outline>
</glyph>
<glyph name="V" format="1">
  <advance width="708"/>
  <unicode hex="0056"/>
  <outline>
    <contour>
      <point x="341" y="-9" type="curve"/>
      <point x="380" y="-9"/>
      <point x="426" y="153"/>
      <point x="421" y="179" type="curve"/>
      <point x="342" y="334"/>
      <point x="291" y="469"/>
      <point x="248" y="601" type="curve"/>
      <point x="325" y="621" type="line"/>
      <point x="311" y="660" type="line"/>
      <point x="275" y="658"/>
      <point x="195" y="657"/>
      <point x="159" y="657" type="curve" smooth="yes"/>
      <point x="118" y="657"/>
      <point x="61" y="658"/>
      <point x="20" y="660" type="curve"/>
      <point x="7" y="621" type="line"/>
      <point x="85" y="601" type="line"/>
      <point x="168" y="414"/>
      <point x="256" y="221"/>
    </contour>
    <contour>
      <point x="341" y="-9" type="curve"/>
      <point x="395" y="-9" type="line"/>
      <point x="462" y="184"/>
      <point x="548" y="411"/>
      <point x="630" y="601" type="curve"/>
      <point x="701" y="621" type="line"/>
      <point x="688" y="660" type="line"/>
      <point x="652" y="658"/>
      <point x="621" y="657"/>
      <point x="586" y="657" type="curve" smooth="yes"/>
      <point x="550" y="657"/>
      <point x="511" y="658"/>
      <point x="468" y="660" type="curve"/>
      <point x="455" y="621" type="line"/>
      <point x="530" y="601" type="line"/>
      <point x="495" y="438"/>
      <point x="426" y="238"/>
      <point x="371" y="112" type="curve"/>
      <point x="355" y="40"/>
      <point x="355" y="27"/>
    </contour>
    <contour>
      <point x="375" y="0" type="move" name="bottom"/>
    </contour>
    <contour>
      <point x="378" y="660" type="move" name="top"/>
    </contour>
  </outline>
</glyph>
<glyph name="bar" format="1">
  <advance width="261"/>
  <unicode hex="007C"/>
  <outline>
    <contour>
      <point x="186" y="763" type="curve"/>
      <point x="75" y="763" type="line"/>
      <point x="81" y="613"/>
      <point x="81" y="463"/>
      <point x="81" y="313" type="curve" smooth="yes"/>
      <point x="81" y="162"/>
      <point x="77" y="12"/>
      <point x="75" y="-138" type="curve"/>
      <point x="186" y="-138" type="line"/>
      <point x="185" y="12"/>
      <point x="180" y="162"/>
      <point x="180" y="313" type="curve" smooth="yes"/>
      <point x="180" y="463"/>
      <point x="181" y="613"/>
    </contour>
  </outline>
</glyph>
<glyph name="asciitilde" format="1">
  <advance width="620"/>
  <unicode hex="007E"/>
  <outline>
    <contour>
      <point x="421" y="206" type="curve" smooth="yes"/>
      <point x="483" y="206"/>
      <point x="546" y="274"/>
      <point x="595" y="355" type="curve"/>
      <point x="567" y="375" type="line"/>
      <point x="538" y="348"/>
      <point x="482" y="315"/>
      <point x="443" y="305" type="curve"/>
      <point x="356" y="305"/>
      <point x="312" y="390"/>
      <point x="205" y="390" type="curve" smooth="yes"/>
      <point x="129" y="390"/>
      <point x="66" y="301"/>
      <point x="24" y="241" type="curve"/>
      <point x="56" y="221" type="line"/>
      <point x="82" y="244"/>
      <point x="132" y="290"/>
      <point x="162" y="301" type="curve"/>
      <point x="260" y="301"/>
      <point x="315" y="206"/>
    </contour>
  </outline>
</glyph>
<glyph name="currency" format="1">
  <advance width="521"/>
  <unicode hex="00A4"/>
  <outline>
    <contour>
      <point x="260" y="162" type="curve" smooth="yes"/>
      <point x="368" y="162"/>
      <point x="422" y="242"/>
      <point x="422" y="323" type="curve" smooth="yes"/>
      <point x="422" y="402"/>
      <point x="369" y="481"/>
      <point x="262" y="481" type="curve" smooth="yes"/>
      <point x="150" y="481"/>
      <point x="94" y="402"/>
      <point x="94" y="322" type="curve" smooth="yes"/>
      <point x="94" y="242"/>
      <point x="150" y="162"/>
    </contour>
    <contour>
      <point x="259" y="237" type="curve" smooth="yes"/>
      <point x="200" y="237"/>
      <point x="170" y="280"/>
      <point x="170" y="323" type="curve" smooth="yes"/>
      <point x="170" y="365"/>
      <point x="199" y="406"/>
      <point x="256" y="406" type="curve" smooth="yes"/>
      <point x="315" y="406"/>
      <point x="345" y="363"/>
      <point x="345" y="321" type="curve" smooth="yes"/>
      <point x="345" y="279"/>
      <point x="316" y="237"/>
    </contour>
    <contour>
      <point x="412" y="531" type="curve"/>
      <point x="389" y="504"/>
      <point x="366" y="481"/>
      <point x="341" y="457" type="curve"/>
      <point x="399" y="400" type="line"/>
      <point x="420" y="426"/>
      <point x="444" y="450"/>
      <point x="471" y="471" type="curve"/>
      <point x="450" y="490"/>
      <point x="430" y="509"/>
    </contour>
    <contour>
      <point x="50" y="169" type="curve"/>
      <point x="72" y="151"/>
      <point x="91" y="132"/>
      <point x="110" y="110" type="curve"/>
      <point x="131" y="137"/>
      <point x="155" y="161"/>
      <point x="181" y="182" type="curve"/>
      <point x="124" y="241" type="line"/>
      <point x="100" y="215"/>
      <point x="77" y="192"/>
    </contour>
    <contour>
      <point x="471" y="169" type="curve"/>
      <point x="444" y="192"/>
      <point x="421" y="215"/>
      <point x="399" y="241" type="curve"/>
      <point x="341" y="182" type="line"/>
      <point x="367" y="161"/>
      <point x="390" y="137"/>
      <point x="412" y="110" type="curve"/>
      <point x="430" y="132"/>
      <point x="450" y="151"/>
    </contour>
    <contour>
      <point x="110" y="531" type="curve"/>
      <point x="91" y="509"/>
      <point x="72" y="490"/>
      <point x="50" y="471" type="curve"/>
      <point x="78" y="450"/>
      <point x="101" y="426"/>
      <point x="124" y="400" type="curve"/>
      <point x="181" y="457" type="line"/>
      <point x="155" y="481"/>
      <point x="132" y="504"/>
    </contour>
    <contour>
      <point x="260" y="551" type="move" name="top"/>
    </contour>
  </outline>
</glyph>
<glyph name="registered" format="1">
  <advance width="786"/>
  <unicode hex="00AE"/>
  <outline>
    <contour>
      <point x="395" y="15" type="curve" smooth="yes"/>
      <point x="228" y="15"/>
      <point x="83" y="156"/>
      <point x="83" y="327" type="curve" smooth="yes"/>
      <point x="83" y="493"/>
      <point x="224" y="634"/>
      <point x="395" y="634" type="curve" smooth="yes"/>
      <point x="561" y="634"/>
      <point x="702" y="493"/>
      <point x="702" y="327" type="curve" smooth="yes"/>
      <point x="702" y="156"/>
      <point x="561" y="15"/>
    </contour>
    <contour>
      <point x="394" y="-33" type="curve" smooth="yes"/>
      <point x="590" y="-33"/>
      <point x="751" y="127"/>
      <point x="751" y="326" type="curve" smooth="yes"/>
      <point x="751" y="522"/>
      <point x="590" y="683"/>
      <point x="394" y="683" type="curve" smooth="yes"/>
      <point x="195" y="683"/>
      <point x="35" y="522"/>
      <point x="35" y="326" type="curve" smooth="yes"/>
      <point x="35" y="127"/>
      <point x="195" y="-33"/>
    </contour>
    <contour>
      <point x="209" y="139" type="line"/>
      <point x="240" y="140"/>
      <point x="263" y="141"/>
      <point x="314" y="141" type="curve" smooth="yes"/>
      <point x="367" y="141"/>
      <point x="384" y="141"/>
      <point x="411" y="139" type="curve"/>
      <point x="421" y="168" type="line"/>
      <point x="363" y="183" type="line"/>
      <point x="361" y="231"/>
      <point x="360" y="277"/>
      <point x="360" y="330" type="curve" smooth="yes"/>
      <point x="360" y="383"/>
      <point x="361" y="429"/>
      <point x="363" y="477" type="curve"/>
      <point x="375" y="482"/>
      <point x="389" y="486"/>
      <point x="402" y="486" type="curve" smooth="yes"/>
      <point x="438" y="486"/>
      <point x="457" y="449"/>
      <point x="457" y="411" type="curve" smooth="yes"/>
      <point x="457" y="381"/>
      <point x="445" y="350"/>
      <point x="420" y="336" type="curve"/>
      <point x="414" y="335"/>
      <point x="407" y="335"/>
      <point x="400" y="335" type="curve" smooth="yes"/>
      <point x="388" y="335"/>
      <point x="375" y="338"/>
      <point x="348" y="344" type="curve"/>
      <point x="348" y="300" type="line"/>
      <point x="378" y="295"/>
      <point x="380" y="294"/>
      <point x="414" y="294" type="curve" smooth="yes"/>
      <point x="512" y="294"/>
      <point x="563" y="358"/>
      <point x="563" y="419" type="curve" smooth="yes"/>
      <point x="563" y="474"/>
      <point x="520" y="528"/>
      <point x="432" y="528" type="curve" smooth="yes"/>
      <point x="392" y="528"/>
      <point x="375" y="524"/>
      <point x="313" y="524" type="curve" smooth="yes"/>
      <point x="257" y="524"/>
      <point x="239" y="525"/>
      <point x="207" y="528" type="curve"/>
      <point x="199" y="498" type="line"/>
      <point x="258" y="483" type="line"/>
      <point x="261" y="429"/>
      <point x="261" y="385"/>
      <point x="261" y="336" type="curve" smooth="yes"/>
      <point x="261" y="280"/>
      <point x="260" y="233"/>
      <point x="258" y="183" type="curve"/>
      <point x="199" y="168" type="line"/>
    </contour>
    <contour>
      <point x="464" y="139" type="curve"/>
      <point x="487" y="140"/>
      <point x="520" y="141"/>
      <point x="541" y="141" type="curve" smooth="yes"/>
      <point x="567" y="141"/>
      <point x="590" y="140"/>
      <point x="608" y="139" type="curve"/>
      <point x="618" y="168" type="line"/>
      <point x="558" y="183" type="line"/>
      <point x="511" y="246"/>
      <point x="486" y="284"/>
      <point x="460" y="324" type="curve"/>
      <point x="453" y="324"/>
      <point x="390" y="313"/>
      <point x="366" y="313" type="curve"/>
      <point x="398" y="263"/>
      <point x="426" y="214"/>
    </contour>
    <contour>
      <point x="450" y="139" type="move" name="bottom"/>
    </contour>
    <contour>
      <point x="405" y="522" type="move" name="top"/>
    </contour>
  </outline>
</glyph>
<glyph name="macron" format="1">
  <advance width="263"/>
  <unicode hex="00AF"/>
  <outline>
    <contour>
      <point x="-10" y="578" type="curve"/>
      <point x="-10" y="497" type="line"/>
      <point x="78" y="499"/>
      <point x="185" y="499"/>
      <point x="273" y="497" type="curve"/>
      <point x="273" y="578" type="line"/>
      <point x="185" y="574"/>
      <point x="78" y="574"/>
    </contour>
    <contour>
      <point x="132" y="430" type="move" name="_top"/>
    </contour>
  </outline>
</glyph>
<glyph name="micro" format="1">
  <advance width="641"/>
  <unicode hex="00B5"/>
  <outline>
    <contour>
      <point x="207" y="434" type="curve"/>
      <point x="64" y="434" type="line"/>
      <point x="66" y="396"/>
      <point x="66" y="350"/>
      <point x="66" y="306" type="curve" smooth="yes"/>
      <point x="66" y="277"/>
      <point x="66" y="248"/>
      <point x="66" y="223" type="curve" smooth="yes"/>
      <point x="66" y="192"/>
      <point x="66" y="166"/>
      <point x="67" y="151" type="curve" smooth="yes"/>
      <point x="71" y="75"/>
      <point x="118" y="-15"/>
      <point x="203" y="-15" type="curve" smooth="yes"/>
      <point x="319" y="-15"/>
      <point x="372" y="81"/>
      <point x="385" y="188" type="curve"/>
      <point x="337" y="191" type="line"/>
      <point x="337" y="131"/>
      <point x="293" y="72"/>
      <point x="262" y="59" type="curve"/>
      <point x="215" y="59"/>
      <point x="200" y="110"/>
      <point x="197" y="171" type="curve" smooth="yes"/>
      <point x="196" y="183"/>
      <point x="196" y="196"/>
      <point x="196" y="209" type="curve" smooth="yes"/>
      <point x="196" y="286"/>
      <point x="204" y="386"/>
    </contour>
    <contour>
      <point x="117" y="182" type="curve"/>
      <point x="67" y="182" type="line"/>
      <point x="67" y="154"/>
      <point x="65" y="90"/>
      <point x="65" y="17" type="curve" smooth="yes"/>
      <point x="65" y="-61"/>
      <point x="67" y="-150"/>
      <point x="75" y="-218" type="curve"/>
      <point x="148" y="-218"/>
      <point x="214" y="-198"/>
      <point x="228" y="-158" type="curve"/>
      <point x="173" y="-130"/>
      <point x="114" y="-72"/>
      <point x="114" y="110" type="curve" smooth="yes"/>
      <point x="114" y="132"/>
      <point x="115" y="156"/>
    </contour>
    <contour>
      <point x="475" y="434" type="curve"/>
      <point x="330" y="434" type="line"/>
      <point x="337" y="316"/>
      <point x="337" y="259"/>
      <point x="337" y="151" type="curve" smooth="yes"/>
      <point x="337" y="37"/>
      <point x="376" y="-16"/>
      <point x="437" y="-16" type="curve" smooth="yes"/>
      <point x="484" y="-16"/>
      <point x="545" y="16"/>
      <point x="611" y="75" type="curve"/>
      <point x="584" y="114" type="line"/>
      <point x="550" y="93"/>
      <point x="525" y="81"/>
      <point x="506" y="81" type="curve" smooth="yes"/>
      <point x="473" y="81"/>
      <point x="461" y="117"/>
      <point x="461" y="195" type="curve" smooth="yes"/>
      <point x="461" y="242"/>
      <point x="471" y="357"/>
    </contour>
  </outline>
</glyph>
<glyph name="onehalf" format="1">
  <advance width="901"/>
  <unicode hex="00BD"/>
  <outline>
    <contour>
      <point x="774" y="693" type="line"/>
      <point x="692" y="693" type="line"/>
      <point x="143" y="-48" type="line"/>
      <point x="224" y="-48" type="line"/>
    </contour>
    <contour>
      <point x="253" y="670" type="curve"/>
      <point x="208" y="670" type="line"/>
      <point x="150" y="630"/>
      <point x="106" y="620"/>
      <point x="35" y="613" type="curve"/>
      <point x="53" y="572" type="line"/>
      <point x="142" y="573" type="line"/>
      <point x="144" y="550"/>
      <point x="146" y="487"/>
      <point x="146" y="452" type="curve" smooth="yes"/>
      <point x="146" y="399"/>
      <point x="146" y="341"/>
      <point x="145" y="304" type="curve"/>
      <point x="53" y="282" type="line"/>
      <point x="64" y="251" type="line"/>
      <point x="95" y="251"/>
      <point x="161" y="253"/>
      <point x="201" y="253" type="curve" smooth="yes"/>
      <point x="255" y="253"/>
      <point x="295" y="252"/>
      <point x="326" y="251" type="curve"/>
      <point x="337" y="282" type="line"/>
      <point x="253" y="304" type="line"/>
      <point x="251" y="354"/>
      <point x="251" y="413"/>
      <point x="251" y="457" type="curve" smooth="yes"/>
      <point x="251" y="517"/>
      <point x="251" y="587"/>
    </contour>
    <contour>
      <point x="550" y="312" type="curve"/>
      <point x="570" y="271" type="line"/>
      <point x="656" y="375"/>
      <point x="742" y="349"/>
      <point x="742" y="279" type="curve" smooth="yes"/>
      <point x="742" y="209"/>
      <point x="674" y="143"/>
      <point x="552" y="32" type="curve"/>
      <point x="567" y="0" type="line"/>
      <point x="615" y="2"/>
      <point x="675" y="3"/>
      <point x="698" y="3" type="curve" smooth="yes"/>
      <point x="746" y="3"/>
      <point x="809" y="2"/>
      <point x="863" y="0" type="curve"/>
      <point x="864" y="27"/>
      <point x="865" y="64"/>
      <point x="866" y="94" type="curve"/>
      <point x="781" y="80"/>
      <point x="737" y="80"/>
      <point x="654" y="78" type="curve"/>
      <point x="624" y="47" type="line"/>
      <point x="743" y="129"/>
      <point x="855" y="210"/>
      <point x="855" y="299" type="curve" smooth="yes"/>
      <point x="855" y="375"/>
      <point x="798" y="417"/>
      <point x="728" y="417" type="curve" smooth="yes"/>
      <point x="649" y="417"/>
      <point x="599" y="368"/>
    </contour>
  </outline>
</glyph>
<glyph name="multiply" format="1">
  <advance width="513"/>
  <unicode hex="00D7"/>
  <outline>
    <contour>
      <point x="488" y="138" type="line"/>
      <point x="365" y="257"/>
      <point x="203" y="419"/>
      <point x="84" y="542" type="curve"/>
      <point x="25" y="483" type="line"/>
      <point x="148" y="364"/>
      <point x="310" y="202"/>
      <point x="429" y="79" type="curve"/>
    </contour>
    <contour>
      <point x="84" y="79" type="line"/>
      <point x="203" y="202"/>
      <point x="365" y="364"/>
      <point x="488" y="483" type="curve"/>
      <point x="429" y="542" type="line"/>
      <point x="310" y="419"/>
      <point x="148" y="257"/>
      <point x="25" y="138" type="curve"/>
    </contour>
  </outline>
</glyph>
<glyph name="florin" format="1">
  <advance width="460"/>
  <unicode hex="0192"/>
  <outline>
    <contour>
      <point x="412" y="418" type="line"/>
      <point x="132" y="418" type="line"/>
      <point x="122" y="365" type="line"/>
      <point x="191" y="363"/>
      <point x="304" y="361"/>
      <point x="415" y="346" type="curve"/>
    </contour>
    <contour>
      <point x="248" y="-63" type="curve" smooth="yes"/>
      <point x="255" y="-31"/>
      <point x="333" y="484"/>
      <point x="338" y="516" type="curve" smooth="yes"/>
      <point x="352" y="602"/>
      <point x="366" y="658"/>
      <point x="404" y="689" type="curve"/>
      <point x="450" y="676"/>
      <point x="479" y="623"/>
      <point x="483" y="566" type="curve"/>
      <point x="527" y="566" type="line"/>
      <point x="561" y="594"/>
      <point x="580" y="637"/>
      <point x="580" y="688" type="curve"/>
      <point x="544" y="725"/>
      <point x="497" y="744"/>
      <point x="447" y="744" type="curve" smooth="yes"/>
      <point x="348" y="744"/>
      <point x="241" y="667"/>
      <point x="211" y="502" type="curve" smooth="yes"/>
      <point x="205" y="470"/>
      <point x="133" y="-15"/>
      <point x="126" y="-47" type="curve" smooth="yes"/>
      <point x="107" y="-132"/>
      <point x="94" y="-189"/>
      <point x="56" y="-220" type="curve"/>
      <point x="10" y="-207"/>
      <point x="-19" y="-154"/>
      <point x="-23" y="-97" type="curve"/>
      <point x="-67" y="-97" type="line"/>
      <point x="-101" y="-125"/>
      <point x="-120" y="-168"/>
      <point x="-120" y="-219" type="curve"/>
      <point x="-84" y="-256"/>
      <point x="-37" y="-273"/>
      <point x="13" y="-273" type="curve" smooth="yes"/>
      <point x="112" y="-273"/>
      <point x="218" y="-201"/>
    </contour>
  </outline>
</glyph>
<glyph name="tilde" format="1">
  <advance width="361"/>
  <unicode hex="02DC"/>
  <outline>
    <contour>
      <point x="16" y="491" type="line"/>
      <point x="34" y="514"/>
      <point x="68" y="540"/>
      <point x="89" y="551" type="curve"/>
      <point x="143" y="551"/>
      <point x="181" y="496"/>
      <point x="240" y="496" type="curve" smooth="yes"/>
      <point x="290" y="496"/>
      <point x="354" y="564"/>
      <point x="381" y="625" type="curve"/>
      <point x="348" y="645" type="line"/>
      <point x="328" y="618"/>
      <point x="296" y="595"/>
      <point x="276" y="585" type="curve"/>
      <point x="216" y="585"/>
      <point x="179" y="640"/>
      <point x="122" y="640" type="curve" smooth="yes"/>
      <point x="73" y="640"/>
      <point x="9" y="571"/>
      <point x="-20" y="511" type="curve"/>
    </contour>
    <contour>
      <point x="181" y="430" type="move" name="_top"/>
    </contour>
  </outline>
</glyph>
<glyph name="alefMadda-ar" format="1">
  <advance width="311"/>
  <unicode hex="0622"/>
  <outline>
    <component base="alef-ar" xOffset="113"/>
    <component base="madda-ar" xOffset="15" yOffset="6"/>
    <contour>
      <point x="199" y="-120" type="move" name="bottom"/>
    </contour>
    <contour>
      <point x="183" y="731" type="move" name="top"/>
    </contour>
  </outline>
</glyph>
<glyph name="yehHamzaabove-ar" format="1">
  <advance width="524"/>
  <unicode hex="0626"/>
  <outline>
    <component base="alefMaksura-ar"/>
    <component base="hamzaabove-ar" xOffset="86" yOffset="-184"/>
    <contour>
      <point x="391" y="-139" type="move" name="bottom"/>
    </contour>
    <contour>
      <point x="217" y="551" type="move" name="top"/>
    </contour>
  </outline>
</glyph>
<glyph name="beh-ar" format="1">
  <advance width="441"/>
  <unicode hex="0628"/>
  <outline>
    <component base="behDotless-ar"/>
    <component base="dotbelow-ar" xOffset="109"/>
    <contour>
      <point x="217" y="-267" type="move" name="bottom"/>
    </contour>
    <contour>
      <point x="225" y="297" type="move" name="top"/>
    </contour>
  </outline>
</glyph>
<glyph name="tehMarbuta-ar" format="1">
  <advance width="487"/>
  <unicode hex="0629"/>
  <outline>
    <component base="heh-ar"/>
    <component base="twodotshorizontalabove-ar" xOffset="75" yOffset="131"/>
    <contour>
      <point x="268" y="-40" type="move" name="bottom"/>
    </contour>
    <contour>
      <point x="249" y="640" type="move" name="top"/>
    </contour>
  </outline>
</glyph>
<glyph name="teh-ar" format="1">
  <advance width="441"/>
  <unicode hex="062A"/>
  <outline>
    <component base="behDotless-ar"/>
    <component base="twodotshorizontalabove-ar" xOffset="112" yOffset="-11"/>
    <contour>
      <point x="218" y="-40" type="move" name="bottom"/>
    </contour>
    <contour>
      <point x="244" y="474" type="move" name="top"/>
    </contour>
  </outline>
</glyph>
<glyph name="theh-ar" format="1">
  <advance width="441"/>
  <unicode hex="062B"/>
  <outline>
    <component base="behDotless-ar"/>
    <component base="threedotsupabove-ar" xOffset="108" yOffset="-19"/>
    <contour>
      <point x="218" y="-40" type="move" name="bottom"/>
    </contour>
    <contour>
      <point x="291" y="689" type="move" name="top"/>
    </contour>
  </outline>
</glyph>
<glyph name="jeem-ar" format="1">
  <advance width="526"/>
  <unicode hex="062C"/>
  <outline>
    <component base="hah-ar"/>
    <component base="dotcenter-ar" xOffset="142" yOffset="-529"/>
    <contour>
      <point x="254" y="-237" type="move" name="bottom"/>
    </contour>
    <contour>
      <point x="273" y="401" type="move" name="top"/>
    </contour>
  </outline>
</glyph>
<glyph name="hah-ar" format="1">
  <advance width="526"/>
  <unicode hex="062D"/>
  <outline>
    <contour>
      <point x="-28" y="-364" type="curve"/>
      <point x="11" y="-138"/>
      <point x="39" y="-7"/>
      <point x="194" y="2" type="curve" smooth="yes"/>
      <point x="266" y="6"/>
      <point x="393" y="3"/>
      <point x="463" y="1" type="curve"/>
      <point x="465" y="11"/>
      <point x="466" y="25"/>
      <point x="466" y="39" type="curve" smooth="yes"/>
      <point x="466" y="67"/>
      <point x="463" y="106"/>
      <point x="458" y="124" type="curve" smooth="yes"/>
      <point x="455" y="136"/>
      <point x="451" y="139"/>
      <point x="435" y="140" type="curve" smooth="yes"/>
      <point x="420" y="141"/>
      <point x="374" y="144"/>
      <point x="267" y="144" type="curve" smooth="yes"/>
      <point x="12" y="144"/>
      <point x="-35" y="15"/>
      <point x="-60" y="-356" type="curve"/>
      <point x="-52" y="-362"/>
      <point x="-42" y="-364"/>
    </contour>
    <contour>
      <point x="423" y="97" type="line"/>
      <point x="435" y="140" type="line"/>
      <point x="417" y="140"/>
      <point x="418" y="145"/>
      <point x="418" y="175" type="curve" smooth="yes"/>
      <point x="418" y="238"/>
      <point x="427" y="236"/>
      <point x="427" y="272" type="curve" smooth="yes"/>
      <point x="427" y="368"/>
      <point x="412" y="368"/>
      <point x="385" y="370" type="curve" smooth="yes"/>
      <point x="343" y="373"/>
      <point x="192" y="372"/>
      <point x="127" y="369" type="curve"/>
      <point x="124" y="356"/>
      <point x="123" y="342"/>
      <point x="123" y="329" type="curve" smooth="yes"/>
      <point x="123" y="271"/>
      <point x="142" y="234"/>
      <point x="158" y="234" type="curve" smooth="yes"/>
      <point x="165" y="234"/>
      <point x="218" y="236"/>
      <point x="273" y="235" type="curve" smooth="yes"/>
      <point x="354" y="234"/>
      <point x="356" y="221"/>
      <point x="356" y="163" type="curve" smooth="yes"/>
      <point x="356" y="142"/>
      <point x="355" y="143"/>
      <point x="320" y="143" type="curve"/>
      <point x="377" y="100" type="line"/>
    </contour>
    <contour>
      <point x="282" y="-30" type="move" name="bottom"/>
    </contour>
    <contour>
      <point x="273" y="401" type="move" name="top"/>
    </contour>
  </outline>
</glyph>
<glyph name="reh-ar" format="1">
  <advance width="338"/>
  <unicode hex="0631"/>
  <outline>
    <contour>
      <point x="241" y="-105"/>
      <point x="253" y="-76"/>
      <point x="253" y="44" type="curve" smooth="yes"/>
      <point x="253" y="94"/>
      <point x="246" y="210"/>
      <point x="236" y="256" type="curve"/>
      <point x="217" y="256"/>
      <point x="190" y="250"/>
      <point x="171" y="243" type="curve" smooth="yes"/>
      <point x="163" y="240"/>
      <point x="159" y="236"/>
      <point x="159" y="232" type="curve" smooth="yes"/>
      <point x="159" y="231"/>
      <point x="159" y="230"/>
      <point x="159" y="229" type="curve" smooth="yes"/>
      <point x="176" y="154"/>
      <point x="181" y="85"/>
      <point x="175" y="42" type="curve"/>
      <point x="95" y="-67"/>
      <point x="-95" y="-247"/>
      <point x="-330" y="-428" type="curve"/>
      <point x="-330" y="-437"/>
      <point x="-317" y="-456"/>
      <point x="-312" y="-456" type="curve"/>
      <point x="-73" y="-321"/>
      <point x="67" y="-233"/>
      <point x="217" y="-123" type="curve" smooth="yes"/>
    </contour>
    <contour>
      <point x="209" y="-212" type="move" name="bottom"/>
    </contour>
    <contour>
      <point x="177" y="288" type="move" name="top"/>
    </contour>
  </outline>
</glyph>
<glyph name="seen-ar" format="1">
  <advance width="485"/>
  <unicode hex="0633"/>
  <outline>
    <contour>
      <point x="-1050" y="-436" type="curve" smooth="yes"/>
      <point x="-957" y="-465"/>
      <point x="-818" y="-474"/>
      <point x="-720" y="-474" type="curve" smooth="yes"/>
      <point x="-438" y="-474"/>
      <point x="-103" y="-380"/>
      <point x="167" y="0" type="curve"/>
      <point x="368" y="0" type="line" smooth="yes"/>
      <point x="399" y="0"/>
      <point x="410" y="72"/>
      <point x="410" y="169" type="curve" smooth="yes"/>
      <point x="410" y="285"/>
      <point x="404" y="322"/>
      <point x="399" y="356" type="curve"/>
      <point x="382" y="356"/>
      <point x="358" y="352"/>
      <point x="343" y="346" type="curve" smooth="yes"/>
      <point x="334" y="342"/>
      <point x="331" y="340"/>
      <point x="331" y="334" type="curve" smooth="yes"/>
      <point x="331" y="326"/>
      <point x="346" y="278"/>
      <point x="346" y="183" type="curve" smooth="yes"/>
      <point x="346" y="147"/>
      <point x="343" y="140"/>
      <point x="329" y="140" type="curve" smooth="yes"/>
      <point x="287" y="140" type="line" smooth="yes"/>
      <point x="279" y="140"/>
      <point x="277" y="141"/>
      <point x="277" y="156" type="curve" smooth="yes"/>
      <point x="277" y="275"/>
      <point x="272" y="323"/>
      <point x="267" y="356" type="curve"/>
      <point x="250" y="356"/>
      <point x="226" y="352"/>
      <point x="211" y="346" type="curve" smooth="yes"/>
      <point x="202" y="342"/>
      <point x="199" y="340"/>
      <point x="199" y="334" type="curve" smooth="yes"/>
      <point x="199" y="326"/>
      <point x="213" y="278"/>
      <point x="214" y="183" type="curve" smooth="yes"/>
      <point x="214" y="150"/>
      <point x="213" y="140"/>
      <point x="203" y="140" type="curve" smooth="yes"/>
      <point x="163" y="140" type="line" smooth="yes"/>
      <point x="147" y="140"/>
      <point x="145" y="143"/>
      <point x="145" y="169" type="curve" smooth="yes"/>
      <point x="145" y="265"/>
      <point x="140" y="323"/>
      <point x="135" y="356" type="curve"/>
      <point x="118" y="356"/>
      <point x="94" y="352"/>
      <point x="79" y="346" type="curve" smooth="yes"/>
      <point x="71" y="342"/>
      <point x="67" y="340"/>
      <point x="67" y="336" type="curve" smooth="yes"/>
      <point x="67" y="335"/>
      <point x="67" y="335"/>
      <point x="67" y="334" type="curve" smooth="yes"/>
      <point x="75" y="279"/>
      <point x="80" y="226"/>
      <point x="80" y="177" type="curve" smooth="yes"/>
      <point x="80" y="137"/>
      <point x="78" y="90"/>
      <point x="67" y="57" type="curve"/>
      <point x="-111" y="-196"/>
      <point x="-372" y="-343"/>
      <point x="-707" y="-343" type="curve" smooth="yes"/>
      <point x="-833" y="-343"/>
      <point x="-970" y="-322"/>
      <point x="-1117" y="-278" type="curve"/>
      <point x="-1119" y="-345"/>
      <point x="-1086" y="-425"/>
    </contour>
    <contour>
      <point x="269" y="-44" type="move" name="bottom"/>
    </contour>
    <contour>
      <point x="240" y="392" type="move" name="top"/>
    </contour>
  </outline>
</glyph>
<glyph name="dad-ar" format="1">
  <advance width="742"/>
  <unicode hex="0636"/>
  <outline>
    <component base="sad-ar"/>
    <component base="dotabove-ar" xOffset="260" yOffset="136"/>
    <contour>
      <point x="379" y="-44" type="move" name="bottom"/>
    </contour>
    <contour>
      <point x="371" y="650" type="move" name="top"/>
    </contour>
  </outline>
</glyph>
<glyph name="tah-ar" format="1">
  <advance width="797"/>
  <unicode hex="0637"/>
  <outline>
    <contour>
      <point x="640" y="140" type="curve" smooth="yes"/>
      <point x="245" y="140" type="line" smooth="yes"/>
      <point x="217" y="140"/>
      <point x="212" y="142"/>
      <point x="211" y="170" type="curve" smooth="yes"/>
      <point x="209" y="235"/>
      <point x="208" y="243"/>
      <point x="283" y="245" type="curve" smooth="yes"/>
      <point x="391" y="248"/>
      <point x="522" y="249"/>
      <point x="615" y="244" type="curve" smooth="yes"/>
      <point x="657" y="242"/>
      <point x="670" y="238"/>
      <point x="671" y="163" type="curve" smooth="yes"/>
      <point x="671" y="141"/>
      <point x="658" y="140"/>
    </contour>
    <contour>
      <point x="55" y="140" type="line"/>
      <point x="55" y="78"/>
      <point x="63" y="0"/>
      <point x="95" y="0" type="curve"/>
      <point x="679" y="0" type="line"/>
      <point x="729" y="0"/>
      <point x="732" y="95"/>
      <point x="732" y="196" type="curve" smooth="yes"/>
      <point x="732" y="340"/>
      <point x="720" y="385"/>
      <point x="661" y="387" type="curve" smooth="yes"/>
      <point x="540" y="391"/>
      <point x="404" y="386"/>
      <point x="224" y="386" type="curve" smooth="yes"/>
      <point x="214" y="386"/>
      <point x="209" y="389"/>
      <point x="208" y="409" type="curve" smooth="yes"/>
      <point x="206" y="445"/>
      <point x="205" y="517"/>
      <point x="201" y="596" type="curve"/>
      <point x="179" y="598"/>
      <point x="145" y="592"/>
      <point x="128" y="584" type="curve" smooth="yes"/>
      <point x="120" y="580"/>
      <point x="116" y="577"/>
      <point x="118" y="568" type="curve" smooth="yes"/>
      <point x="126" y="532"/>
      <point x="144" y="353"/>
      <point x="145" y="204" type="curve" smooth="yes"/>
      <point x="145" y="143"/>
      <point x="137" y="140"/>
      <point x="120" y="140" type="curve" smooth="yes"/>
    </contour>
    <contour>
      <point x="434" y="-40" type="move" name="bottom"/>
    </contour>
    <contour>
      <point x="453" y="426" type="move" name="top"/>
    </contour>
  </outline>
</glyph>
<glyph name="zah-ar" format="1">
  <advance width="797"/>
  <unicode hex="0638"/>
  <outline>
    <component base="tah-ar"/>
    <component base="dotabove-ar" xOffset="342" yOffset="142"/>
    <contour>
      <point x="410" y="-40" type="move" name="bottom"/>
    </contour>
    <contour>
      <point x="462" y="670" type="move" name="top"/>
    </contour>
  </outline>
</glyph>
<glyph name="ghain-ar" format="1">
  <advance width="511"/>
  <unicode hex="063A"/>
  <outline>
    <component base="ain-ar"/>
    <component base="dotabove-ar" xOffset="172" yOffset="88"/>
    <contour>
      <point x="281" y="-40" type="move" name="bottom"/>
    </contour>
    <contour>
      <point x="285" y="600" type="move" name="top"/>
    </contour>
  </outline>
</glyph>
<glyph name="kashida-ar" format="1">
  <advance width="105"/>
  <unicode hex="0640"/>
  <outline>
    <contour>
      <point x="-20" y="0" type="line"/>
      <point x="125" y="0" type="line"/>
      <point x="125" y="140" type="line"/>
      <point x="-20" y="140" type="line"/>
    </contour>
    <contour>
      <point x="49" y="-20" type="move" name="bottom"/>
    </contour>
    <contour>
      <point x="51" y="160" type="move" name="top"/>
    </contour>
  </outline>
</glyph>
<glyph name="noon-ar" format="1">
  <advance width="253"/>
  <unicode hex="0646"/>
  <outline>
    <component base="noonghunna-ar"/>
    <component base="dotabove-ar" xOffset="5" yOffset="15"/>
    <contour>
      <point x="100" y="-268" type="move" name="bottom"/>
    </contour>
    <contour>
      <point x="88" y="549" type="move" name="top"/>
    </contour>
  </outline>
</glyph>
<glyph name="heh-ar" format="1">
  <advance width="487"/>
  <unicode hex="0647"/>
  <outline>
    <contour>
      <point x="372" y="157" type="curve" smooth="yes"/>
      <point x="372" y="144"/>
      <point x="372" y="142"/>
      <point x="295" y="140" type="curve" smooth="yes"/>
      <point x="268" y="139"/>
      <point x="215" y="140"/>
      <point x="215" y="147" type="curve" smooth="yes"/>
      <point x="215" y="157"/>
      <point x="333" y="243"/>
      <point x="342" y="243" type="curve" smooth="yes"/>
      <point x="366" y="243"/>
      <point x="372" y="199"/>
    </contour>
    <contour>
      <point x="430" y="0"/>
      <point x="432" y="96"/>
      <point x="432" y="186" type="curve" smooth="yes"/>
      <point x="432" y="222"/>
      <point x="430" y="340"/>
      <point x="425" y="387" type="curve" smooth="yes"/>
      <point x="423" y="406"/>
      <point x="392" y="429"/>
      <point x="373" y="429" type="curve"/>
      <point x="344" y="419"/>
      <point x="55" y="194"/>
      <point x="55" y="170" type="curve" smooth="yes"/>
      <point x="55" y="118"/>
      <point x="70" y="39"/>
      <point x="89" y="0" type="curve"/>
      <point x="173" y="0"/>
      <point x="281" y="0"/>
      <point x="380" y="0" type="curve" smooth="yes"/>
    </contour>
    <contour>
      <point x="268" y="-40" type="move" name="bottom"/>
    </contour>
    <contour>
      <point x="254" y="426" type="move" name="top"/>
    </contour>
  </outline>
</glyph>
<glyph name="alefMaksura-ar" format="1">
  <advance width="524"/>
  <unicode hex="0649"/>
  <outline>
    <contour>
      <point x="252" y="10" type="curve"/>
      <point x="95" y="-180"/>
      <point x="-163" y="-299"/>
      <point x="-403" y="-299" type="curve" smooth="yes"/>
      <point x="-530" y="-299"/>
      <point x="-653" y="-265"/>
      <point x="-751" y="-190" type="curve"/>
      <point x="-753" y="-242"/>
      <point x="-731" y="-330"/>
      <point x="-702" y="-349" type="curve" smooth="yes"/>
      <point x="-610" y="-407"/>
      <point x="-506" y="-434"/>
      <point x="-397" y="-434" type="curve" smooth="yes"/>
      <point x="-112" y="-434"/>
      <point x="200" y="-251"/>
      <point x="374" y="0" type="curve"/>
      <point x="377" y="16"/>
      <point x="379" y="38"/>
      <point x="379" y="59" type="curve" smooth="yes"/>
      <point x="379" y="69"/>
      <point x="378" y="79"/>
      <point x="377" y="88" type="curve" smooth="yes"/>
      <point x="376" y="96"/>
      <point x="334" y="114"/>
      <point x="278" y="135" type="curve"/>
      <point x="321" y="156"/>
      <point x="390" y="186"/>
      <point x="400" y="186" type="curve" smooth="yes"/>
      <point x="415" y="186"/>
      <point x="417" y="181"/>
      <point x="420" y="160" type="curve" smooth="yes"/>
      <point x="425" y="130"/>
      <point x="429" y="79"/>
      <point x="429" y="0" type="curve"/>
      <point x="480" y="0" type="line"/>
      <point x="483" y="77"/>
      <point x="483" y="244"/>
      <point x="484" y="316" type="curve" smooth="yes"/>
      <point x="484" y="340"/>
      <point x="455" y="352"/>
      <point x="421" y="355" type="curve"/>
      <point x="336" y="279"/>
      <point x="242" y="207"/>
      <point x="88" y="157" type="curve"/>
      <point x="88" y="123"/>
      <point x="102" y="54"/>
      <point x="115" y="33" type="curve"/>
      <point x="168" y="29"/>
      <point x="202" y="26"/>
    </contour>
    <contour>
      <point x="391" y="-139" type="move" name="bottom"/>
    </contour>
    <contour>
      <point x="197" y="301" type="move" name="top"/>
    </contour>
  </outline>
</glyph>
<glyph name="vinvertedabove-ar" format="1">
  <advance width="335"/>
  <unicode hex="065B"/>
  <outline>
    <contour>
      <point x="43" y="523" type="curve"/>
      <point x="43" y="511"/>
      <point x="79" y="491"/>
      <point x="90" y="491" type="curve"/>
      <point x="180" y="599" type="line"/>
      <point x="272" y="485" type="line"/>
      <point x="289" y="493"/>
      <point x="317" y="518"/>
      <point x="313" y="523" type="curve"/>
      <point x="219" y="637" type="line" smooth="yes"/>
      <point x="204" y="656"/>
      <point x="181" y="672"/>
      <point x="168" y="672" type="curve" smooth="yes"/>
      <point x="168" y="672"/>
      <point x="121" y="601"/>
    </contour>
    <contour>
      <point x="168" y="435" type="move" name="_top"/>
    </contour>
    <contour>
      <point x="178" y="712" type="move" name="top"/>
    </contour>
  </outline>
</glyph>
<glyph name="dotvowelbelow-ar" format="1">
  <advance width="218"/>
  <unicode hex="065C"/>
  <outline>
    <contour>
      <point x="111" y="-261" type="curve" smooth="yes"/>
      <point x="174" y="-261"/>
      <point x="223" y="-212"/>
      <point x="223" y="-153" type="curve" smooth="yes"/>
      <point x="223" y="-95"/>
      <point x="174" y="-46"/>
      <point x="111" y="-46" type="curve" smooth="yes"/>
      <point x="48" y="-46"/>
      <point x="-1" y="-95"/>
      <point x="-1" y="-153" type="curve" smooth="yes"/>
      <point x="-1" y="-212"/>
      <point x="48" y="-261"/>
    </contour>
    <contour>
      <point x="112" y="-36" type="move" name="_bottom"/>
    </contour>
    <contour>
      <point x="111" y="-294" type="move" name="bottom"/>
    </contour>
  </outline>
</glyph>
<glyph name="zero-ar" format="1">
  <advance width="322"/>
  <unicode hex="0660"/>
  <outline>
    <contour>
      <point x="158" y="225" type="curve"/>
      <point x="196" y="247"/>
      <point x="253" y="300"/>
      <point x="253" y="335" type="curve"/>
      <point x="232" y="377"/>
      <point x="202" y="409"/>
      <point x="164" y="436" type="curve"/>
      <point x="118" y="420"/>
      <point x="69" y="352"/>
      <point x="69" y="318" type="curve"/>
      <point x="101" y="291"/>
      <point x="125" y="262"/>
    </contour>
  </outline>
</glyph>
<glyph name="two-ar" format="1">
  <advance width="521"/>
  <unicode hex="0662"/>
  <outline>
    <contour>
      <point x="165" y="494" type="line"/>
      <point x="202" y="388"/>
      <point x="252" y="325"/>
      <point x="316" y="325" type="curve" smooth="yes"/>
      <point x="402" y="325"/>
      <point x="476" y="438"/>
      <point x="476" y="642" type="curve"/>
      <point x="464" y="652"/>
      <point x="449" y="654"/>
      <point x="433" y="653" type="curve"/>
      <point x="422" y="542"/>
      <point x="381" y="486"/>
      <point x="318" y="486" type="curve" smooth="yes"/>
      <point x="265" y="486"/>
      <point x="207" y="533"/>
      <point x="163" y="644" type="curve"/>
    </contour>
    <contour>
      <point x="135" y="-15" type="curve"/>
      <point x="155" y="-11"/>
      <point x="175" y="-6"/>
      <point x="185" y="11" type="curve"/>
      <point x="190" y="93"/>
      <point x="199" y="198"/>
      <point x="199" y="308" type="curve" smooth="yes"/>
      <point x="199" y="420"/>
      <point x="196" y="537"/>
      <point x="163" y="644" type="curve"/>
      <point x="112" y="644"/>
      <point x="60" y="590"/>
      <point x="45" y="558" type="curve"/>
      <point x="101" y="410"/>
      <point x="125" y="220"/>
    </contour>
  </outline>
</glyph>
<glyph name="three-ar" format="1">
  <advance width="586"/>
  <unicode hex="0663"/>
  <outline>
    <contour>
      <point x="122" y="516" type="line"/>
      <point x="146" y="379"/>
      <point x="203" y="314"/>
      <point x="258" y="314" type="curve" smooth="yes"/>
      <point x="320" y="314"/>
      <point x="377" y="396"/>
      <point x="377" y="552" type="curve" smooth="yes"/>
      <point x="377" y="568"/>
      <point x="379" y="643"/>
      <point x="378" y="665" type="curve"/>
      <point x="358" y="671"/>
      <point x="342" y="671"/>
      <point x="322" y="671" type="curve"/>
      <point x="324" y="653"/>
      <point x="324" y="634"/>
      <point x="324" y="621" type="curve" smooth="yes"/>
      <point x="324" y="532"/>
      <point x="290" y="488"/>
      <point x="249" y="488" type="curve" smooth="yes"/>
      <point x="205" y="488"/>
      <point x="153" y="537"/>
      <point x="126" y="637" type="curve"/>
    </contour>
    <contour>
      <point x="107" y="-15" type="curve"/>
      <point x="127" y="-14"/>
      <point x="141" y="-6"/>
      <point x="151" y="11" type="curve"/>
      <point x="156" y="71"/>
      <point x="159" y="141"/>
      <point x="159" y="216" type="curve" smooth="yes"/>
      <point x="159" y="362"/>
      <point x="149" y="522"/>
      <point x="126" y="637" type="curve"/>
      <point x="82" y="637"/>
      <point x="24" y="582"/>
      <point x="5" y="550" type="curve"/>
      <point x="70" y="402"/>
      <point x="97" y="227"/>
    </contour>
    <contour>
      <point x="343" y="536" type="line"/>
      <point x="366" y="419"/>
      <point x="421" y="366"/>
      <point x="467" y="366" type="curve" smooth="yes"/>
      <point x="528" y="366"/>
      <point x="581" y="456"/>
      <point x="581" y="613" type="curve" smooth="yes"/>
      <point x="581" y="627"/>
      <point x="581" y="641"/>
      <point x="580" y="656" type="curve"/>
      <point x="567" y="666"/>
      <point x="555" y="669"/>
      <point x="533" y="669" type="curve"/>
      <point x="534" y="661"/>
      <point x="534" y="653"/>
      <point x="534" y="646" type="curve" smooth="yes"/>
      <point x="534" y="561"/>
      <point x="499" y="518"/>
      <point x="461" y="518" type="curve" smooth="yes"/>
      <point x="422" y="518"/>
      <point x="388" y="571"/>
      <point x="378" y="665" type="curve"/>
    </contour>
  </outline>
</glyph>
<glyph name="percent-ar" format="1">
  <advance width="570"/>
  <unicode hex="066A"/>
  <outline>
    <contour>
      <point x="550" y="683" type="line"/>
      <point x="459" y="683" type="line"/>
      <point x="20" y="-18" type="line"/>
      <point x="110" y="-18" type="line"/>
    </contour>
    <component base="dotabove-ar" xScale="0.584" xyScale="0.584" yxScale="-0.584" yScale="0.584" xOffset="287" yOffset="217"/>
    <component base="dotabove-ar" xScale="0.584" xyScale="0.584" yxScale="-0.584" yScale="0.584" xOffset="592" yOffset="-161"/>
  </outline>
</glyph>
<glyph name="highhamza-ar" format="1">
  <advance width="228"/>
  <unicode hex="0674"/>
  <outline>
    <component base="hamzaabove-ar"/>
    <contour>
      <point x="111" y="485" type="move" name="_top"/>
    </contour>
    <contour>
      <point x="111" y="735" type="move" name="top"/>
    </contour>
  </outline>
</glyph>
<glyph name="beeh-ar" format="1">
  <advance width="441"/>
  <unicode hex="067B"/>
  <outline>
    <component base="behDotless-ar"/>
    <component base="twodotsverticalbelow-ar" xOffset="129" yOffset="-10"/>
    <contour>
      <point x="225" y="-430" type="move" name="bottom"/>
    </contour>
    <contour>
      <point x="225" y="297" type="move" name="top"/>
    </contour>
  </outline>
</glyph>
<glyph name="peh-ar" format="1">
  <advance width="441"/>
  <unicode hex="067E"/>
  <outline>
    <component base="behDotless-ar"/>
    <component base="threedotsdownbelow-ar" xOffset="36" yOffset="10"/>
    <contour>
      <point x="215" y="-434" type="move" name="bottom"/>
    </contour>
    <contour>
      <point x="225" y="297" type="move" name="top"/>
    </contour>
  </outline>
</glyph>
<glyph name="jeh-ar" format="1">
  <advance width="338"/>
  <unicode hex="0698"/>
  <outline>
    <component base="reh-ar"/>
    <component base="threedotsupabove-ar" xOffset="-6" yOffset="-15"/>
    <contour>
      <point x="209" y="-212" type="move" name="bottom"/>
    </contour>
    <contour>
      <point x="157" y="708" type="move" name="top"/>
    </contour>
  </outline>
</glyph>
<glyph name="tahThreedots-ar" format="1">
  <advance width="797"/>
  <unicode hex="069F"/>
  <outline>
    <component base="tah-ar"/>
    <component base="threedotsupabove-ar" xOffset="270" yOffset="123"/>
    <contour>
      <point x="410" y="-40" type="move" name="bottom"/>
    </contour>
    <contour>
      <point x="446" y="832" type="move" name="top"/>
    </contour>
  </outline>
</glyph>
<glyph name="ainThreedots-ar" format="1">
  <advance width="511"/>
  <unicode hex="06A0"/>
  <outline>
    <component base="ain-ar"/>
    <component base="threedotsupabove-ar" xOffset="100" yOffset="89"/>
    <contour>
      <point x="281" y="-40" type="move" name="bottom"/>
    </contour>
    <contour>
      <point x="285" y="794" type="move" name="top"/>
    </contour>
  </outline>
</glyph>
<glyph name="veh-ar" format="1">
  <advance width="530"/>
  <unicode hex="06A4"/>
  <outline>
    <component base="fehDotless-ar"/>
    <component base="threedotsupabove-ar" xScale="0.826" yScale="0.826" xOffset="36" yOffset="303"/>
    <contour>
      <point x="276" y="-40" type="move" name="bottom"/>
    </contour>
    <contour>
      <point x="187" y="885" type="move" name="top"/>
    </contour>
  </outline>
</glyph>
<glyph name="qafThreedotsabove-ar" format="1">
  <advance width="530"/>
  <unicode hex="06A8"/>
  <outline>
    <component base="qafDotless-ar"/>
    <component base="threedotsupabove-ar" xScale="0.826" yScale="0.826" xOffset="30" yOffset="303"/>
    <contour>
      <point x="264" y="-40" type="move" name="bottom"/>
    </contour>
    <contour>
      <point x="175" y="885" type="move" name="top"/>
    </contour>
  </outline>
</glyph>
<glyph name="ng-ar" format="1">
  <advance width="780"/>
  <unicode hex="06AD"/>
  <outline>
    <component base="kaf-ar"/>
    <component base="threedotsabovesmall-ar" xOffset="50" yOffset="97"/>
    <contour>
      <point x="397" y="-40" type="move" name="bottom"/>
    </contour>
    <contour>
      <point x="185" y="819" type="move" name="top"/>
    </contour>
  </outline>
</glyph>
<glyph name="oe-ar" format="1">
  <advance width="481"/>
  <unicode hex="06C6"/>
  <outline>
    <component base="waw-ar"/>
    <component base="vabove-ar" xOffset="12" yOffset="-54"/>
    <contour>
      <point x="329" y="-222" type="move" name="bottom"/>
    </contour>
    <contour>
      <point x="162" y="604" type="move" name="top"/>
    </contour>
  </outline>
</glyph>
<glyph name="yu-ar" format="1">
  <advance width="481"/>
  <unicode hex="06C8"/>
  <outline>
    <component base="waw-ar"/>
    <component base="alefabove-ar" xOffset="113" yOffset="-122"/>
    <contour>
      <point x="329" y="-222" type="move" name="bottom"/>
    </contour>
    <contour>
      <point x="150" y="717" type="move" name="top"/>
    </contour>
  </outline>
</glyph>
<glyph name="kirghizyu-ar" format="1">
  <advance width="481"/>
  <unicode hex="06C9"/>
  <outline>
    <component base="waw-ar"/>
    <component base="vinvertedabove-ar" xOffset="-7" yOffset="-35"/>
    <contour>
      <point x="329" y="-222" type="move" name="bottom"/>
    </contour>
    <contour>
      <point x="171" y="660" type="move" name="top"/>
    </contour>
  </outline>
</glyph>
<glyph name="e-ar" format="1">
  <advance width="524"/>
  <unicode hex="06D0"/>
  <outline>
    <component base="alefMaksura-ar"/>
    <component base="twodotsverticalbelow-ar" xOffset="-484" yOffset="-439"/>
    <contour>
      <point x="391" y="-139" type="move" name="bottom"/>
    </contour>
    <contour>
      <point x="212" y="310" type="move" name="top"/>
    </contour>
  </outline>
</glyph>
<glyph name="behThreedotsupbelow-ar" format="1">
  <advance width="441"/>
  <unicode hex="0752"/>
  <outline>
    <component base="behDotless-ar"/>
    <component base="threedotsupbelow-ar" xOffset="36" yOffset="-40"/>
    <contour>
      <point x="221" y="-455" type="move" name="bottom"/>
    </contour>
    <contour>
      <point x="271" y="283" type="move" name="top"/>
    </contour>
  </outline>
</glyph>
<glyph name="behVabove-ar" format="1">
  <advance width="441"/>
  <unicode hex="0756"/>
  <outline>
    <component base="behDotless-ar"/>
    <component base="vabove-ar" xOffset="142" yOffset="-170"/>
    <contour>
      <point x="218" y="-40" type="move" name="bottom"/>
    </contour>
    <contour>
      <point x="266" y="462" type="move" name="top"/>
    </contour>
  </outline>
</glyph>
<glyph name="yehTwodotsbelowDotabove-ar" format="1">
  <advance width="524"/>
  <unicode hex="08A9"/>
  <outline>
    <component base="yeh-ar.ss01"/>
    <component base="dotabove-ar" xOffset="106" yOffset="17"/>
    <component base="twodotshorizontalbelow-ar" xOffset="-574" yOffset="-439"/>
    <contour>
      <point x="391" y="-139" type="move" name="bottom"/>
    </contour>
    <contour>
      <point x="217" y="567" type="move" name="top"/>
    </contour>
  </outline>
</glyph>
<glyph name="fraction" format="1">
  <advance width="600"/>
  <unicode hex="2044"/>
  <outline>
    <contour>
      <point x="550" y="683" type="line"/>
      <point x="459" y="683" type="line"/>
      <point x="10" y="-28" type="line"/>
      <point x="100" y="-28" type="line"/>
    </contour>
  </outline>
</glyph>
<glyph name="jeh-ar.fina" format="1">
  <advance width="363"/>
  <unicode hex="FB8B"/>
  <outline>
    <component base="reh-ar.fina"/>
    <component base="threedotsupabove-ar" xOffset="23" yOffset="-9"/>
    <contour>
      <point x="231" y="-196" type="move" name="bottom"/>
    </contour>
    <contour>
      <point x="177" y="708" type="move" name="top"/>
    </contour>
  </outline>
</glyph>
<glyph name="keheh-ar.fina" format="1">
  <advance width="784"/>
  <unicode hex="FB8F"/>
  <outline>
    <component base="kaf-ar.fina"/>
    <contour>
      <point x="412" y="-40" type="move" name="bottom"/>
    </contour>
    <contour>
      <point x="165" y="490" type="move" name="top"/>
    </contour>
  </outline>
</glyph>
<glyph name="keheh-ar.init" format="1">
  <advance width="800"/>
  <unicode hex="FB90"/>
  <outline>
    <component base="kaf-ar.init"/>
    <contour>
      <point x="402" y="-40" type="move" name="bottom"/>
    </contour>
    <contour>
      <point x="185" y="490" type="move" name="top"/>
    </contour>
  </outline>
</glyph>
<glyph name="keheh-ar.medi" format="1">
  <advance width="799"/>
  <unicode hex="FB91"/>
  <outline>
    <component base="kaf-ar.medi"/>
    <contour>
      <point x="412" y="-40" type="move" name="bottom"/>
    </contour>
    <contour>
      <point x="175" y="490" type="move" name="top"/>
    </contour>
  </outline>
</glyph>
<glyph name="gaf-ar.init" format="1">
  <advance width="800"/>
  <unicode hex="FB94"/>
  <outline>
    <component base="kaf-ar.init"/>
    <component base="gafbar" xOffset="59" yOffset="-156"/>
    <contour>
      <point x="402" y="-40" type="move" name="bottom"/>
    </contour>
    <contour>
      <point x="195" y="630" type="move" name="top"/>
    </contour>
  </outline>
</glyph>
<glyph name="noonghunna-ar.fina" format="1">
  <advance width="252"/>
  <unicode hex="FB9F"/>
  <outline>
    <contour>
      <point x="121" y="57" type="curve"/>
      <point x="-69" y="-214"/>
      <point x="-340" y="-344"/>
      <point x="-652" y="-344" type="curve" smooth="yes"/>
      <point x="-790" y="-344"/>
      <point x="-936" y="-318"/>
      <point x="-1086" y="-269" type="curve"/>
      <point x="-1087" y="-277"/>
      <point x="-1088" y="-285"/>
      <point x="-1088" y="-292" type="curve" smooth="yes"/>
      <point x="-1088" y="-351"/>
      <point x="-1060" y="-411"/>
      <point x="-1026" y="-423" type="curve" smooth="yes"/>
      <point x="-933" y="-456"/>
      <point x="-811" y="-476"/>
      <point x="-654" y="-476" type="curve" smooth="yes"/>
      <point x="-46" y="-476"/>
      <point x="210" y="0"/>
      <point x="245" y="0" type="curve" smooth="yes"/>
      <point x="272" y="0" type="line"/>
      <point x="272" y="140" type="line"/>
      <point x="199" y="140" type="line" smooth="yes"/>
      <point x="187" y="140"/>
      <point x="183" y="141"/>
      <point x="182" y="148" type="curve" smooth="yes"/>
      <point x="176" y="188"/>
      <point x="171" y="216"/>
      <point x="163" y="256" type="curve"/>
      <point x="144" y="256"/>
      <point x="122" y="252"/>
      <point x="103" y="245" type="curve" smooth="yes"/>
      <point x="95" y="242"/>
      <point x="91" y="238"/>
      <point x="91" y="234" type="curve" smooth="yes"/>
      <point x="91" y="233"/>
      <point x="91" y="232"/>
      <point x="91" y="231" type="curve" smooth="yes"/>
      <point x="106" y="178"/>
      <point x="121" y="103"/>
    </contour>
    <contour>
      <point x="100" y="-268" type="move" name="bottom"/>
    </contour>
    <contour>
      <point x="102" y="299" type="move" name="top"/>
    </contour>
  </outline>
</glyph>
<glyph name="yehbarree-ar.fina" format="1">
  <advance width="402"/>
  <unicode hex="FBAF"/>
  <outline>
    <contour>
      <point x="162" y="140" type="line"/>
      <point x="82" y="0" type="line"/>
      <point x="422" y="0" type="line"/>
      <point x="422" y="140" type="line"/>
    </contour>
    <contour>
      <point x="188" y="196" type="curve"/>
      <point x="173" y="214"/>
      <point x="154" y="227"/>
      <point x="125" y="229" type="curve"/>
      <point x="87" y="39"/>
      <point x="-15" y="-61"/>
      <point x="-15" y="-153" type="curve" smooth="yes"/>
      <point x="-15" y="-207"/>
      <point x="6" y="-211"/>
      <point x="28" y="-211" type="curve" smooth="yes"/>
      <point x="411" y="-211" type="line"/>
      <point x="425" y="-211"/>
      <point x="427" y="-207"/>
      <point x="427" y="-186" type="curve" smooth="yes"/>
      <point x="427" y="-148"/>
      <point x="418" y="-99"/>
      <point x="406" y="-71" type="curve"/>
      <point x="120" y="-71" type="line" smooth="yes"/>
      <point x="102" y="-71"/>
      <point x="94" y="-70"/>
      <point x="94" y="-58" type="curve" smooth="yes"/>
      <point x="94" y="-45"/>
      <point x="185" y="92"/>
    </contour>
    <contour>
      <point x="213" y="-267" type="move" name="bottom"/>
    </contour>
    <contour>
      <point x="165" y="254" type="move" name="top"/>
    </contour>
  </outline>
</glyph>
<glyph name="yehbarreeHamzaabove-ar.fina" format="1">
  <advance width="402"/>
  <unicode hex="FBB1"/>
  <outline>
    <component base="hamzaabove-ar" xOffset="36" yOffset="-262"/>
    <component base="yehbarree-ar.fina"/>
    <contour>
      <point x="213" y="-267" type="move" name="bottom"/>
    </contour>
    <contour>
      <point x="154" y="485" type="move" name="top"/>
    </contour>
  </outline>
</glyph>
<glyph name="ng-ar.init" format="1">
  <advance width="800"/>
  <unicode hex="FBD5"/>
  <outline>
    <component base="kaf-ar.init"/>
    <component base="threedotsabovesmall-ar" xOffset="50" yOffset="97"/>
    <contour>
      <point x="402" y="-40" type="move" name="bottom"/>
    </contour>
    <contour>
      <point x="185" y="820" type="move" name="top"/>
    </contour>
  </outline>
</glyph>
<glyph name="oe-ar.fina" format="1">
  <advance width="529"/>
  <unicode hex="FBDA"/>
  <outline>
    <component base="waw-ar.fina"/>
    <component base="vabove-ar" xOffset="52" yOffset="-44"/>
    <contour>
      <point x="329" y="-222" type="move" name="bottom"/>
    </contour>
    <contour>
      <point x="202" y="614" type="move" name="top"/>
    </contour>
  </outline>
</glyph>
<glyph name="e-ar.fina" format="1">
  <advance width="562"/>
  <unicode hex="FBE5"/>
  <outline>
    <component base="alefMaksura-ar.fina"/>
    <component base="twodotsverticalbelow-ar" xOffset="-511" yOffset="-445"/>
    <contour>
      <point x="391" y="-139" type="move" name="bottom"/>
    </contour>
    <contour>
      <point x="191" y="310" type="move" name="top"/>
    </contour>
  </outline>
</glyph>
<glyph name="yeh-farsi.fina" format="1">
  <advance width="562"/>
  <unicode hex="FBFD"/>
  <outline>
    <component base="alefMaksura-ar.fina"/>
    <contour>
      <point x="391" y="-139" type="move" name="bottom"/>
    </contour>
    <contour>
      <point x="227" y="301" type="move" name="top"/>
    </contour>
  </outline>
</glyph>
<glyph name="yeh-farsi.init" format="1">
  <advance width="339"/>
  <unicode hex="FBFE"/>
  <outline>
    <component base="yeh-ar.init"/>
    <contour>
      <point x="129" y="-240" type="move" name="bottom"/>
    </contour>
    <contour>
      <point x="183" y="297" type="move" name="top"/>
    </contour>
  </outline>
</glyph>
<glyph name="yeh-farsi.medi" format="1">
  <advance width="329"/>
  <unicode hex="FBFF"/>
  <outline>
    <component base="yeh-ar.medi"/>
    <contour>
      <point x="158" y="-240" type="move" name="bottom"/>
    </contour>
    <contour>
      <point x="192" y="297" type="move" name="top"/>
    </contour>
  </outline>
</glyph>
<glyph name="wawHamzaabove-ar.fina" format="1">
  <advance width="616"/>
  <unicode hex="FE86"/>
  <outline>
    <contour>
      <point x="205" y="144" type="curve" smooth="yes"/>
      <point x="198" y="144"/>
      <point x="197" y="148"/>
      <point x="202" y="152" type="curve" smooth="yes"/>
      <point x="256" y="201"/>
      <point x="330" y="256"/>
      <point x="341" y="256" type="curve" smooth="yes"/>
      <point x="348" y="256"/>
      <point x="357" y="194"/>
      <point x="357" y="160" type="curve" smooth="yes"/>
      <point x="357" y="147"/>
      <point x="356" y="146"/>
      <point x="347" y="145" type="curve" smooth="yes"/>
      <point x="319" y="143"/>
      <point x="299" y="143"/>
      <point x="270" y="143" type="curve" smooth="yes"/>
      <point x="249" y="143"/>
      <point x="220" y="143"/>
    </contour>
    <contour>
      <point x="-213" y="-408" type="curve"/>
      <point x="58" y="-275"/>
      <point x="245" y="-168"/>
      <point x="460" y="0" type="curve"/>
      <point x="636" y="0" type="line"/>
      <point x="636" y="140" type="line"/>
      <point x="444" y="140" type="line" smooth="yes"/>
      <point x="430" y="140"/>
      <point x="426" y="143"/>
      <point x="425" y="176" type="curve" smooth="yes"/>
      <point x="424" y="265"/>
      <point x="420" y="360"/>
      <point x="416" y="425" type="curve"/>
      <point x="415" y="434"/>
      <point x="384" y="453"/>
      <point x="376" y="453" type="curve" smooth="yes"/>
      <point x="364" y="453"/>
      <point x="40" y="192"/>
      <point x="40" y="167" type="curve" smooth="yes"/>
      <point x="40" y="141"/>
      <point x="64" y="38"/>
      <point x="81" y="0" type="curve"/>
      <point x="205" y="0" type="line" smooth="yes"/>
      <point x="256" y="0"/>
      <point x="256" y="-3"/>
      <point x="251" y="-9" type="curve" smooth="yes"/>
      <point x="133" y="-128"/>
      <point x="-21" y="-251"/>
      <point x="-230" y="-382" type="curve"/>
      <point x="-228" y="-393"/>
      <point x="-222" y="-401"/>
    </contour>
    <contour>
      <point x="384" y="217" type="curve"/>
      <point x="395" y="217"/>
      <point x="411" y="185"/>
      <point x="425" y="176" type="curve"/>
      <point x="425" y="210"/>
      <point x="427" y="217"/>
      <point x="432" y="217" type="curve"/>
      <point x="555" y="217" type="line"/>
      <point x="555" y="230"/>
      <point x="554" y="260"/>
      <point x="547" y="260" type="curve" smooth="yes"/>
      <point x="429" y="260" type="line"/>
      <point x="420" y="260"/>
      <point x="422" y="290"/>
      <point x="429" y="290" type="curve"/>
      <point x="555" y="290" type="line"/>
      <point x="555" y="303"/>
      <point x="554" y="334"/>
      <point x="547" y="334" type="curve" smooth="yes"/>
      <point x="426" y="334" type="line"/>
      <point x="418" y="334"/>
      <point x="423" y="364"/>
      <point x="431" y="364" type="curve"/>
      <point x="555" y="364" type="line"/>
      <point x="555" y="376"/>
      <point x="554" y="407"/>
      <point x="547" y="407" type="curve" smooth="yes"/>
      <point x="425" y="407" type="line" smooth="yes"/>
      <point x="418" y="407"/>
      <point x="417" y="408"/>
      <point x="416" y="425" type="curve"/>
      <point x="404" y="427"/>
      <point x="405" y="407"/>
      <point x="393" y="407" type="curve" smooth="yes"/>
      <point x="343" y="407"/>
      <point x="368" y="351"/>
      <point x="368" y="314" type="curve"/>
      <point x="368" y="265"/>
      <point x="347" y="217"/>
    </contour>
    <contour>
      <point x="329" y="-222" type="move" name="bottom"/>
    </contour>
    <contour>
      <point x="221" y="430" type="move" name="top"/>
    </contour>
  </outline>
</glyph>
<glyph name="alefHamzabelow-ar.fina" format="1">
  <advance width="314"/>
  <unicode hex="FE88"/>
  <outline>
    <contour>
      <point x="115" y="-30" type="curve" smooth="yes"/>
      <point x="115" y="-4"/>
      <point x="116" y="0"/>
      <point x="124" y="0" type="curve" smooth="yes"/>
      <point x="333" y="0" type="line"/>
      <point x="333" y="7" type="line"/>
      <point x="334" y="140" type="line"/>
      <point x="136" y="140"/>
      <point x="121" y="140"/>
      <point x="121" y="162" type="curve" smooth="yes"/>
      <point x="125" y="294"/>
      <point x="128" y="439"/>
      <point x="131" y="556" type="curve"/>
      <point x="104" y="556"/>
      <point x="76" y="550"/>
      <point x="59" y="542" type="curve" smooth="yes"/>
      <point x="52" y="538"/>
      <point x="49" y="536"/>
      <point x="49" y="529" type="curve" smooth="yes"/>
      <point x="49" y="528"/>
      <point x="49" y="527"/>
      <point x="49" y="526" type="curve" smooth="yes"/>
      <point x="60" y="315"/>
      <point x="62" y="-219"/>
      <point x="79" y="-219" type="curve"/>
      <point x="112" y="-197" type="line"/>
      <point x="113" y="-162"/>
      <point x="114" y="-77"/>
    </contour>
    <contour>
      <point x="79" y="-219" type="line"/>
      <point x="117" y="-219" type="line"/>
      <point x="254" y="-219" type="line"/>
      <point x="254" y="-206"/>
      <point x="253" y="-176"/>
      <point x="246" y="-176" type="curve" smooth="yes"/>
      <point x="119" y="-176" type="line"/>
      <point x="110" y="-176"/>
      <point x="115" y="-146"/>
      <point x="122" y="-146" type="curve"/>
      <point x="254" y="-146" type="line"/>
      <point x="254" y="-133"/>
      <point x="253" y="-102"/>
      <point x="246" y="-102" type="curve" smooth="yes"/>
      <point x="119" y="-102" type="line"/>
      <point x="111" y="-102"/>
      <point x="116" y="-72"/>
      <point x="124" y="-72" type="curve"/>
      <point x="254" y="-72" type="line"/>
      <point x="254" y="-60"/>
      <point x="253" y="-29"/>
      <point x="246" y="-29" type="curve" smooth="yes"/>
      <point x="124" y="-29" type="line" smooth="yes"/>
      <point x="116" y="-29"/>
      <point x="115" y="-28"/>
      <point x="115" y="-11" type="curve"/>
      <point x="103" y="-9"/>
      <point x="104" y="-29"/>
      <point x="92" y="-29" type="curve"/>
    </contour>
    <contour>
      <point x="92" y="-290" type="move" name="bottom"/>
    </contour>
    <contour>
      <point x="92" y="598" type="move" name="top"/>
    </contour>
  </outline>
</glyph>
<glyph name="beh-ar.fina" format="1">
  <advance width="444"/>
  <unicode hex="FE90"/>
  <outline>
    <component base="behDotless-ar.fina"/>
    <component base="dotbelow-ar" xOffset="103" yOffset="-10"/>
    <contour>
      <point x="207" y="-267" type="move" name="bottom"/>
    </contour>
    <contour>
      <point x="255" y="297" type="move" name="top"/>
    </contour>
  </outline>
</glyph>
<glyph name="teh-ar.medi" format="1">
  <advance width="329"/>
  <unicode hex="FE98"/>
  <outline>
    <component base="behDotless-ar.medi"/>
    <component base="twodotshorizontalabove-ar" xOffset="11" yOffset="-11"/>
    <contour>
      <point x="162" y="-40" type="move" name="bottom"/>
    </contour>
    <contour>
      <point x="165" y="506" type="move" name="top"/>
    </contour>
  </outline>
</glyph>
<glyph name="theh-ar.init" format="1">
  <advance width="339"/>
  <unicode hex="FE9B"/>
  <outline>
    <component base="behDotless-ar.init"/>
    <component base="threedotsupabove-ar" xOffset="34" yOffset="-21"/>
    <contour>
      <point x="142" y="-40" type="move" name="bottom"/>
    </contour>
    <contour>
      <point x="151" y="689" type="move" name="top"/>
    </contour>
  </outline>
</glyph>
<glyph name="jeem-ar.fina" format="1">
  <advance width="558"/>
  <unicode hex="FE9E"/>
  <outline>
    <component base="hah-ar.fina"/>
    <component base="dotcenter-ar" xOffset="224" yOffset="-742"/>
    <contour>
      <point x="337" y="-466" type="move" name="bottom"/>
    </contour>
    <contour>
      <point x="356" y="185" type="move" name="top"/>
    </contour>
  </outline>
</glyph>
<glyph name="jeem-ar.init" format="1">
  <advance width="505"/>
  <unicode hex="FE9F"/>
  <outline>
    <component base="hah-ar.init"/>
    <component base="dotbelow-ar" xOffset="114"/>
    <contour>
      <point x="182" y="-260" type="move" name="bottom"/>
    </contour>
    <contour>
      <point x="223" y="401" type="move" name="top"/>
    </contour>
  </outline>
</glyph>
<glyph name="khah-ar.medi" format="1">
  <advance width="403"/>
  <unicode hex="FEA8"/>
  <outline>
    <component base="hah-ar.medi"/>
    <component base="dotabove-ar" xOffset="89" yOffset="56"/>
    <contour>
      <point x="202" y="-40" type="move" name="bottom"/>
    </contour>
    <contour>
      <point x="195" y="586" type="move" name="top"/>
    </contour>
  </outline>
</glyph>
<glyph name="thal-ar.fina" format="1">
  <advance width="475"/>
  <unicode hex="FEAC"/>
  <outline>
    <component base="dal-ar.fina"/>
    <component base="dotabove-ar" xOffset="163" yOffset="11"/>
    <contour>
      <point x="312" y="-40" type="move" name="bottom"/>
    </contour>
    <contour>
      <point x="281" y="540" type="move" name="top"/>
    </contour>
  </outline>
</glyph>
<glyph name="zain-ar.fina" format="1">
  <advance width="363"/>
  <unicode hex="FEB0"/>
  <outline>
    <component base="reh-ar.fina"/>
    <component base="dotabove-ar" xOffset="105" yOffset="-28"/>
    <contour>
      <point x="231" y="-196" type="move" name="bottom"/>
    </contour>
    <contour>
      <point x="182" y="508" type="move" name="top"/>
    </contour>
  </outline>
</glyph>
<glyph name="sheen-ar.fina" format="1">
  <advance width="475"/>
  <unicode hex="FEB6"/>
  <outline>
    <component base="seen-ar.fina"/>
    <component base="threedotsupabove-ar" xOffset="60" yOffset="80"/>
    <contour>
      <point x="269" y="-44" type="move" name="bottom"/>
    </contour>
    <contour>
      <point x="237" y="793" type="move" name="top"/>
    </contour>
  </outline>
</glyph>
<glyph name="sad-ar.fina" format="1">
  <advance width="751"/>
  <unicode hex="FEBA"/>
  <outline>
    <contour>
      <point x="133" y="233" type="curve" smooth="yes"/>
      <point x="133" y="253"/>
      <point x="138" y="261"/>
      <point x="158" y="264" type="curve" smooth="yes"/>
      <point x="180" y="267"/>
      <point x="241" y="268"/>
      <point x="312" y="268" type="curve" smooth="yes"/>
      <point x="400" y="268"/>
      <point x="502" y="266"/>
      <point x="555" y="263" type="curve" smooth="yes"/>
      <point x="597" y="260"/>
      <point x="606" y="236"/>
      <point x="606" y="173" type="curve" smooth="yes"/>
      <point x="606" y="151"/>
      <point x="600" y="150"/>
      <point x="585" y="150" type="curve" smooth="yes"/>
      <point x="180" y="150" type="line" smooth="yes"/>
      <point x="143" y="150"/>
      <point x="133" y="150"/>
    </contour>
    <contour>
      <point x="70" y="78" type="curve"/>
      <point x="-83" y="-201"/>
      <point x="-386" y="-351"/>
      <point x="-716" y="-351" type="curve" smooth="yes"/>
      <point x="-853" y="-351"/>
      <point x="-994" y="-321"/>
      <point x="-1131" y="-274" type="curve"/>
      <point x="-1131" y="-335"/>
      <point x="-1081" y="-421"/>
      <point x="-1044" y="-433" type="curve" smooth="yes"/>
      <point x="-947" y="-464"/>
      <point x="-848" y="-477"/>
      <point x="-710" y="-477" type="curve" smooth="yes"/>
      <point x="-429" y="-477"/>
      <point x="-71" y="-367"/>
      <point x="170" y="0" type="curve"/>
      <point x="771" y="0" type="line"/>
      <point x="771" y="140" type="line"/>
      <point x="707" y="140" type="line" smooth="yes"/>
      <point x="677" y="140"/>
      <point x="667" y="141"/>
      <point x="667" y="165" type="curve" smooth="yes"/>
      <point x="667" y="358"/>
      <point x="657" y="398"/>
      <point x="608" y="402" type="curve" smooth="yes"/>
      <point x="556" y="406"/>
      <point x="462" y="408"/>
      <point x="368" y="408" type="curve" smooth="yes"/>
      <point x="280" y="408"/>
      <point x="192" y="406"/>
      <point x="141" y="402" type="curve" smooth="yes"/>
      <point x="88" y="397"/>
      <point x="70" y="383"/>
      <point x="70" y="250" type="curve" smooth="yes"/>
      <point x="70" y="158"/>
      <point x="70" y="109"/>
    </contour>
    <contour>
      <point x="379" y="-44" type="move" name="bottom"/>
    </contour>
    <contour>
      <point x="371" y="449" type="move" name="top"/>
    </contour>
  </outline>
</glyph>
<glyph name="zah-ar.init" format="1">
  <advance width="747"/>
  <unicode hex="FEC7"/>
  <outline>
    <component base="tah-ar.init"/>
    <component base="dotabove-ar" xOffset="276" yOffset="132"/>
    <contour>
      <point x="382" y="-40" type="move" name="bottom"/>
    </contour>
    <contour>
      <point x="392" y="670" type="move" name="top"/>
    </contour>
  </outline>
</glyph>
<glyph name="zah-ar.medi" format="1">
  <advance width="789"/>
  <unicode hex="FEC8"/>
  <outline>
    <component base="tah-ar.medi"/>
    <component base="dotabove-ar" xOffset="320" yOffset="132"/>
    <contour>
      <point x="422" y="-40" type="move" name="bottom"/>
    </contour>
    <contour>
      <point x="432" y="670" type="move" name="top"/>
    </contour>
  </outline>
</glyph>
<glyph name="ghain-ar.fina" format="1">
  <advance width="536"/>
  <unicode hex="FECE"/>
  <outline>
    <component base="ain-ar.fina"/>
    <component base="dotabove-ar" xOffset="128" yOffset="356"/>
    <contour>
      <point x="242" y="-40" type="move" name="bottom"/>
    </contour>
    <contour>
      <point x="239" y="870" type="move" name="top"/>
    </contour>
  </outline>
</glyph>
<glyph name="ghain-ar.init" format="1">
  <advance width="483"/>
  <unicode hex="FECF"/>
  <outline>
    <component base="ain-ar.init"/>
    <component base="dotabove-ar" xOffset="160" yOffset="88"/>
    <contour>
      <point x="262" y="-40" type="move" name="bottom"/>
    </contour>
    <contour>
      <point x="271" y="600" type="move" name="top"/>
    </contour>
  </outline>
</glyph>
<glyph name="feh-ar.fina" format="1">
  <advance width="558"/>
  <unicode hex="FED2"/>
  <outline>
    <component base="fehDotless-ar.fina"/>
    <component base="dotabove-ar" xOffset="74" yOffset="234"/>
    <contour>
      <point x="282" y="-40" type="move" name="bottom"/>
    </contour>
    <contour>
      <point x="185" y="778" type="move" name="top"/>
    </contour>
  </outline>
</glyph>
<glyph name="qaf-ar.medi" format="1">
  <advance width="538"/>
  <unicode hex="FED8"/>
  <outline>
    <component base="fehDotless-ar.medi"/>
    <component base="twodotshorizontalabove-ar" xOffset="-4" yOffset="283"/>
    <contour>
      <point x="282" y="-40" type="move" name="bottom"/>
    </contour>
    <contour>
      <point x="174" y="781" type="move" name="top"/>
    </contour>
  </outline>
</glyph>
<glyph name="meem-ar.init" format="1">
  <advance width="408"/>
  <unicode hex="FEE3"/>
  <outline>
    <contour>
      <point x="-20" y="0" type="line"/>
      <point x="281" y="0" type="line" smooth="yes"/>
      <point x="326" y="0"/>
      <point x="343" y="83"/>
      <point x="343" y="209" type="curve" smooth="yes"/>
      <point x="343" y="370"/>
      <point x="302" y="456"/>
      <point x="209" y="456" type="curve" smooth="yes"/>
      <point x="110" y="456"/>
      <point x="67" y="364"/>
      <point x="67" y="202" type="curve" smooth="yes"/>
      <point x="67" y="150"/>
      <point x="66" y="140"/>
      <point x="37" y="140" type="curve" smooth="yes"/>
      <point x="-20" y="140" type="line"/>
    </contour>
    <contour>
      <point x="206" y="136" type="curve"/>
      <point x="144" y="136"/>
      <point x="133" y="149"/>
      <point x="133" y="215" type="curve" smooth="yes"/>
      <point x="133" y="272"/>
      <point x="159" y="302"/>
      <point x="206" y="302" type="curve" smooth="yes"/>
      <point x="255" y="302"/>
      <point x="277" y="269"/>
      <point x="277" y="210" type="curve" smooth="yes"/>
      <point x="277" y="146"/>
      <point x="265" y="136"/>
    </contour>
    <contour>
      <point x="192" y="-40" type="move" name="bottom"/>
    </contour>
    <contour>
      <point x="207" y="480" type="move" name="top"/>
    </contour>
  </outline>
</glyph>
<glyph name="noon-ar.fina" format="1">
  <advance width="252"/>
  <unicode hex="FEE6"/>
  <outline>
    <component base="noonghunna-ar.fina"/>
    <component base="dotabove-ar" xOffset="-9" yOffset="15"/>
    <contour>
      <point x="100" y="-268" type="move" name="bottom"/>
    </contour>
    <contour>
      <point x="88" y="549" type="move" name="top"/>
    </contour>
  </outline>
</glyph>
<glyph name="yeh-ar.fina" format="1">
  <advance width="562"/>
  <unicode hex="FEF2"/>
  <outline>
    <component base="alefMaksura-ar.fina"/>
    <component base="twodotshorizontalbelow-ar" xOffset="-481" yOffset="-425"/>
    <contour>
      <point x="391" y="-139" type="move" name="bottom"/>
    </contour>
    <contour>
      <point x="217" y="301" type="move" name="top"/>
    </contour>
  </outline>
</glyph>
<glyph name="yeh-ar.medi" format="1">
  <advance width="329"/>
  <unicode hex="FEF4"/>
  <outline>
    <component base="behDotless-ar.medi"/>
    <component base="twodotshorizontalbelow-ar" xOffset="-17"/>
    <contour>
      <point x="158" y="-240" type="move" name="bottom"/>
    </contour>
    <contour>
      <point x="192" y="297" type="move" name="top"/>
    </contour>
  </outline>
</glyph>
<glyph name="lam_alefMadda-ar.fina" format="1">
  <advance width="509"/>
  <unicode hex="FEF6"/>
  <outline>
    <component base="madda-ar" xOffset="-55" yOffset="46"/>
    <component base="lam_alef-ar.fina" xOffset="15"/>
    <contour>
      <point x="514" y="-50" type="move" name="bottom_1"/>
    </contour>
    <contour>
      <point x="107" y="-46" type="move" name="bottom_2"/>
    </contour>
    <contour>
      <point x="289" y="0" type="move" name="caret_1"/>
    </contour>
    <contour>
      <point x="373" y="689" type="move" name="top_1"/>
    </contour>
    <contour>
      <point x="100" y="761" type="move" name="top_2"/>
    </contour>
  </outline>
</glyph>
<glyph name="lam_alefHamzaabove-ar.fina" format="1">
  <advance width="494"/>
  <unicode hex="FEF8"/>
  <outline>
    <component base="lam_alef-ar.fina"/>
    <component base="hamzaabove-ar" xOffset="-10" yOffset="130"/>
    <contour>
      <point x="474" y="-50" type="move" name="bottom_1"/>
    </contour>
    <contour>
      <point x="67" y="-46" type="move" name="bottom_2"/>
    </contour>
    <contour>
      <point x="274" y="0" type="move" name="caret_1"/>
    </contour>
    <contour>
      <point x="352" y="684" type="move" name="top_1"/>
    </contour>
    <contour>
      <point x="105" y="866" type="move" name="top_2"/>
    </contour>
  </outline>
</glyph>
<glyph name="lam_alefHamzabelow-ar.fina" format="1">
  <advance width="494"/>
  <unicode hex="FEFA"/>
  <outline>
    <component base="lam_alef-ar.fina"/>
    <component base="hamzabelow-ar" xOffset="-40" yOffset="-50"/>
    <contour>
      <point x="474" y="-50" type="move" name="bottom_1"/>
    </contour>
    <contour>
      <point x="67" y="-336" type="move" name="bottom_2"/>
    </contour>
    <contour>
      <point x="277" y="0" type="move" name="caret_1"/>
    </contour>
    <contour>
      <point x="352" y="684" type="move" name="top_1"/>
    </contour>
    <contour>
      <point x="115" y="646" type="move" name="top_2"/>
    </contour>
  </outline>
</glyph>
<glyph name="ain-ar.medi.alt" format="1">
  <advance width="382"/>
  <outline>
    <contour>
      <point x="173" y="428" type="line"/>
      <point x="172" y="503"/>
      <point x="142" y="546"/>
      <point x="83" y="553" type="curve" smooth="yes"/>
      <point x="77" y="554"/>
      <point x="78" y="557"/>
      <point x="81" y="560" type="curve" smooth="yes"/>
      <point x="118" y="593"/>
      <point x="159" y="642"/>
      <point x="182" y="665" type="curve" smooth="yes"/>
      <point x="184" y="668"/>
      <point x="190" y="668"/>
      <point x="193" y="664" type="curve" smooth="yes"/>
      <point x="220" y="633"/>
      <point x="252" y="588"/>
      <point x="280" y="552" type="curve" smooth="yes"/>
      <point x="289" y="540"/>
      <point x="287" y="538"/>
      <point x="281" y="538" type="curve" smooth="yes"/>
      <point x="200" y="537"/>
      <point x="104" y="518"/>
      <point x="105" y="415" type="curve"/>
    </contour>
    <contour>
      <point x="-20" y="207" type="line"/>
      <point x="97" y="207" type="line"/>
      <point x="115" y="207"/>
      <point x="119" y="201"/>
      <point x="121" y="158" type="curve" smooth="yes"/>
      <point x="125" y="74"/>
      <point x="135" y="0"/>
      <point x="164" y="0" type="curve" smooth="yes"/>
      <point x="402" y="0" type="line"/>
      <point x="402" y="140" type="line"/>
      <point x="232" y="140" type="line" smooth="yes"/>
      <point x="192" y="140"/>
      <point x="188" y="154"/>
      <point x="185" y="196" type="curve" smooth="yes"/>
      <point x="179" y="279"/>
      <point x="173" y="381"/>
      <point x="195" y="394" type="curve" smooth="yes"/>
      <point x="212" y="404"/>
      <point x="299" y="401"/>
      <point x="321" y="401" type="curve" smooth="yes"/>
      <point x="331" y="401"/>
      <point x="334" y="404"/>
      <point x="342" y="418" type="curve" smooth="yes"/>
      <point x="359" y="450"/>
      <point x="378" y="494"/>
      <point x="377" y="535" type="curve"/>
      <point x="319" y="615"/>
      <point x="290" y="651"/>
      <point x="228" y="750" type="curve"/>
      <point x="219" y="775"/>
      <point x="172" y="824"/>
      <point x="137" y="824" type="curve"/>
      <point x="74" y="739"/>
      <point x="-19" y="631"/>
      <point x="-99" y="559" type="curve"/>
      <point x="-99" y="506"/>
      <point x="-81" y="457"/>
      <point x="-62" y="420" type="curve" smooth="yes"/>
      <point x="-59" y="413"/>
      <point x="-58" y="410"/>
      <point x="-50" y="410" type="curve" smooth="yes"/>
      <point x="16" y="406"/>
      <point x="80" y="414"/>
      <point x="98" y="394" type="curve" smooth="yes"/>
      <point x="107" y="383"/>
      <point x="110" y="377"/>
      <point x="110" y="362" type="curve" smooth="yes"/>
      <point x="110" y="349"/>
      <point x="108" y="347"/>
      <point x="-20" y="347" type="curve"/>
    </contour>
    <contour>
      <point x="162" y="-40" type="move" name="bottom"/>
    </contour>
    <contour>
      <point x="147" y="822" type="move" name="top"/>
    </contour>
  </outline>
</glyph>
<glyph name="ainThreedots-ar.fina.ss05" format="1">
  <advance width="536"/>
  <outline>
    <component base="ain-ar.fina"/>
    <component base="threedots-ar.small" xOffset="68" yOffset="902"/>
    <component base="dotabove-ar" xOffset="124" yOffset="366"/>
    <contour>
      <point x="252" y="-40" type="move" name="bottom"/>
    </contour>
    <contour>
      <point x="237" y="1149" type="move" name="top"/>
    </contour>
  </outline>
</glyph>
<glyph name="ainThreedots-ar.medi.alt" format="1">
  <advance width="382"/>
  <outline>
    <component base="ain-ar.medi.alt"/>
    <component base="threedotsupabove-ar" xOffset="-36" yOffset="519"/>
    <contour>
      <point x="142" y="-40" type="move" name="bottom"/>
    </contour>
    <contour>
      <point x="147" y="1225" type="move" name="top"/>
    </contour>
  </outline>
</glyph>
<glyph name="ainThreedots-ar.medi.alt.ss05" format="1">
  <advance width="382"/>
  <outline>
    <component base="ain-ar.medi.alt"/>
    <component base="threedots-ar.small" xOffset="-32" yOffset="1079"/>
    <component base="dotabove-ar" xOffset="36" yOffset="538"/>
    <contour>
      <point x="142" y="-40" type="move" name="bottom"/>
    </contour>
    <contour>
      <point x="150" y="1326" type="move" name="top"/>
    </contour>
  </outline>
</glyph>
<glyph name="ainThreedots-ar.medi" format="1">
  <advance width="572"/>
  <outline>
    <component base="ain-ar.medi"/>
    <component base="threedotsabovesmall-ar" xOffset="160" yOffset="272"/>
    <contour>
      <point x="282" y="-40" type="move" name="bottom"/>
    </contour>
    <contour>
      <point x="289" y="999" type="move" name="top"/>
    </contour>
  </outline>
</glyph>
<glyph name="ainThreedots-ar.medi.ss05" format="1">
  <advance width="572"/>
  <outline>
    <component base="ain-ar.medi"/>
    <component base="threedots-ar.small" xOffset="118" yOffset="929"/>
    <component base="dotabove-ar" xOffset="184" yOffset="381"/>
    <contour>
      <point x="282" y="-40" type="move" name="bottom"/>
    </contour>
    <contour>
      <point x="295" y="1183" type="move" name="top"/>
    </contour>
  </outline>
</glyph>
<glyph name="ainTwodotshorizontalabove-ar.fina" format="1">
  <advance width="536"/>
  <outline>
    <component base="ain-ar.fina"/>
    <component base="twodotshorizontalabove-ar" xOffset="56" yOffset="355"/>
    <contour>
      <point x="241" y="-50" type="move" name="bottom"/>
    </contour>
    <contour>
      <point x="223" y="872" type="move" name="top"/>
    </contour>
  </outline>
</glyph>
<glyph name="ainTwodotshorizontalabove-ar.fina.ss06" format="1">
  <advance width="536"/>
  <outline>
    <component base="ain-ar.fina.ss06"/>
    <component base="twodotshorizontalabove-ar" xOffset="67" yOffset="355"/>
    <contour>
      <point x="234" y="-373" type="move" name="bottom"/>
    </contour>
    <contour>
      <point x="243" y="872" type="move" name="top"/>
    </contour>
  </outline>
</glyph>
<glyph name="ainTwodotshorizontalabove-ar.medi" format="1">
  <advance width="572"/>
  <outline>
    <component base="ain-ar.medi"/>
    <component base="twodotshorizontalabove-ar" xOffset="116" yOffset="370"/>
    <contour>
      <point x="281" y="-40" type="move" name="bottom"/>
    </contour>
    <contour>
      <point x="293" y="882" type="move" name="top"/>
    </contour>
  </outline>
</glyph>
<glyph name="alef-ar.fina.short" format="1">
  <advance width="224"/>
  <outline>
    <component base="alef-ar.fina"/>
    <contour>
      <point x="92" y="-220" type="move" name="bottom"/>
    </contour>
    <contour>
      <point x="92" y="598" type="move" name="top"/>
    </contour>
  </outline>
</glyph>
<glyph name="alef-ar.ss08" format="1">
  <advance width="178"/>
  <outline>
    <contour>
      <point x="112" y="89"/>
      <point x="122" y="329"/>
      <point x="127" y="556" type="curve"/>
      <point x="100" y="556"/>
      <point x="72" y="550"/>
      <point x="55" y="542" type="curve" smooth="yes"/>
      <point x="48" y="538"/>
      <point x="45" y="536"/>
      <point x="45" y="529" type="curve" smooth="yes"/>
      <point x="45" y="528"/>
      <point x="45" y="527"/>
      <point x="45" y="526" type="curve" smooth="yes"/>
      <point x="56" y="315"/>
      <point x="63" y="129"/>
      <point x="68" y="-96" type="curve"/>
      <point x="83" y="-96"/>
      <point x="108" y="-92"/>
      <point x="108" y="-74" type="curve" smooth="yes"/>
    </contour>
    <contour>
      <point x="89" y="-75" type="move" name="bottom"/>
    </contour>
    <contour>
      <point x="158" y="245" type="move" name="center"/>
    </contour>
    <contour>
      <point x="90" y="528" type="move" name="top"/>
    </contour>
  </outline>
</glyph>
<glyph name="alef-ar.wide" format="1">
  <advance width="275"/>
  <outline>
    <component base="alef-ar" xOffset="10"/>
    <contour>
      <point x="99" y="-120" type="move" name="bottom"/>
    </contour>
    <contour>
      <point x="197" y="312" type="move" name="top"/>
    </contour>
  </outline>
</glyph>
<glyph name="beeh-ar.fina.ss05" format="1">
  <advance width="444"/>
  <outline>
    <component base="behDotless-ar.fina"/>
    <component base="dotbelow-ar" xOffset="103"/>
    <component base="threedots-ar" xOffset="64" yOffset="293"/>
    <contour>
      <point x="214" y="-258" type="move" name="bottom"/>
    </contour>
    <contour>
      <point x="234" y="537" type="move" name="top"/>
    </contour>
  </outline>
</glyph>
<glyph name="beeh-ar.medi.alt" format="1">
  <advance width="197"/>
  <outline>
    <component base="behDotless-ar.medi.alt"/>
    <component base="twodotsverticalbelow-ar" xOffset="21" yOffset="-11"/>
    <contour>
      <point x="106" y="-410" type="move" name="bottom"/>
    </contour>
    <contour>
      <point x="37" y="439" type="move" name="top"/>
    </contour>
  </outline>
</glyph>
<glyph name="beh-ar.init.alt" format="1">
  <advance width="339"/>
  <outline>
    <contour>
      <point x="-20" y="0" type="line"/>
      <point x="229" y="0" type="line" smooth="yes"/>
      <point x="249" y="0"/>
      <point x="267" y="42"/>
      <point x="269" y="199" type="curve" smooth="yes"/>
      <point x="270" y="289"/>
      <point x="265" y="493"/>
      <point x="261" y="533" type="curve"/>
      <point x="256" y="538"/>
      <point x="250" y="541"/>
      <point x="244" y="541" type="curve" smooth="yes"/>
      <point x="239" y="541"/>
      <point x="233" y="539"/>
      <point x="227" y="534" type="curve" smooth="yes"/>
      <point x="207" y="517"/>
      <point x="179" y="501"/>
      <point x="160" y="483" type="curve"/>
      <point x="161" y="433"/>
      <point x="163" y="380"/>
      <point x="165" y="340" type="curve" smooth="yes"/>
      <point x="167" y="290"/>
      <point x="204" y="335"/>
      <point x="208" y="223" type="curve" smooth="yes"/>
      <point x="209" y="197"/>
      <point x="210" y="178"/>
      <point x="210" y="166" type="curve" smooth="yes"/>
      <point x="210" y="140"/>
      <point x="207" y="140"/>
      <point x="201" y="140" type="curve" smooth="yes"/>
      <point x="-20" y="140" type="line"/>
    </contour>
    <component base="dotbelow-ar" xOffset="28"/>
    <contour>
      <point x="117" y="-253" type="move" name="bottom"/>
    </contour>
    <contour>
      <point x="178" y="574" type="move" name="top"/>
    </contour>
  </outline>
</glyph>
<glyph name="behDotless-ar.init" format="1">
  <advance width="339"/>
  <outline>
    <contour>
      <point x="202" y="246" type="curve" smooth="yes"/>
      <point x="193" y="242"/>
      <point x="190" y="240"/>
      <point x="190" y="234" type="curve" smooth="yes"/>
      <point x="190" y="226"/>
      <point x="204" y="188"/>
      <point x="204" y="163" type="curve" smooth="yes"/>
      <point x="204" y="150"/>
      <point x="201" y="140"/>
      <point x="192" y="140" type="curve" smooth="yes"/>
      <point x="-20" y="140" type="line"/>
      <point x="-20" y="0" type="line"/>
      <point x="225" y="0" type="line"/>
      <point x="257" y="0"/>
      <point x="267" y="78"/>
      <point x="267" y="152" type="curve" smooth="yes"/>
      <point x="267" y="198"/>
      <point x="263" y="233"/>
      <point x="258" y="256" type="curve"/>
      <point x="241" y="256"/>
      <point x="217" y="252"/>
    </contour>
    <contour>
      <point x="155" y="-50" type="move" name="bottom"/>
    </contour>
    <contour>
      <point x="217" y="282" type="move" name="top"/>
    </contour>
  </outline>
</glyph>
<glyph name="behDotless-ar.medi" format="1">
  <advance width="329"/>
  <outline>
    <contour>
      <point x="242" y="148" type="curve" smooth="yes"/>
      <point x="239" y="188"/>
      <point x="240" y="216"/>
      <point x="232" y="256" type="curve"/>
      <point x="213" y="256"/>
      <point x="191" y="252"/>
      <point x="176" y="246" type="curve" smooth="yes"/>
      <point x="167" y="242"/>
      <point x="164" y="240"/>
      <point x="164" y="234" type="curve" smooth="yes"/>
      <point x="164" y="226"/>
      <point x="177" y="187"/>
      <point x="177" y="159" type="curve" smooth="yes"/>
      <point x="177" y="146"/>
      <point x="174" y="140"/>
      <point x="165" y="140" type="curve" smooth="yes"/>
      <point x="-20" y="140" type="line"/>
      <point x="-20" y="0" type="line"/>
      <point x="349" y="0" type="line"/>
      <point x="349" y="140" type="line"/>
      <point x="259" y="140" type="line" smooth="yes"/>
      <point x="247" y="140"/>
      <point x="243" y="141"/>
    </contour>
    <contour>
      <point x="162" y="-40" type="move" name="bottom"/>
    </contour>
    <contour>
      <point x="190" y="284" type="move" name="top"/>
    </contour>
  </outline>
</glyph>
<glyph name="behThreedotsupbelow-ar.fina" format="1">
  <advance width="444"/>
  <outline>
    <component base="threedotsupbelow-ar" xOffset="36" yOffset="-40"/>
    <component base="behDotless-ar.fina"/>
    <contour>
      <point x="221" y="-455" type="move" name="bottom"/>
    </contour>
    <contour>
      <point x="271" y="283" type="move" name="top"/>
    </contour>
  </outline>
</glyph>
<glyph name="behVabove-ar.fina" format="1">
  <advance width="444"/>
  <outline>
    <component base="behDotless-ar.fina"/>
    <component base="vabove-ar" xOffset="155" yOffset="-165"/>
    <contour>
      <point x="212" y="-40" type="move" name="bottom"/>
    </contour>
    <contour>
      <point x="266" y="492" type="move" name="top"/>
    </contour>
  </outline>
</glyph>
<glyph name="behVabove-ar.init" format="1">
  <advance width="339"/>
  <outline>
    <component base="behDotless-ar.init"/>
    <component base="vabove-ar" xOffset="68" yOffset="-172"/>
    <contour>
      <point x="155" y="-50" type="move" name="bottom"/>
    </contour>
    <contour>
      <point x="176" y="492" type="move" name="top"/>
    </contour>
  </outline>
</glyph>
<glyph name="behVabove-ar.medi.alt" format="1">
  <advance width="197"/>
  <outline>
    <component base="behDotless-ar.medi.alt"/>
    <component base="vabove-ar" xOffset="-91" yOffset="-23"/>
    <contour>
      <point x="94" y="-44" type="move" name="bottom"/>
    </contour>
    <contour>
      <point x="56" y="642" type="move" name="top"/>
    </contour>
  </outline>
</glyph>
<glyph name="behVabove-ar.medi" format="1">
  <advance width="329"/>
  <outline>
    <component base="behDotless-ar.medi"/>
    <component base="vabove-ar" xOffset="41" yOffset="-170"/>
    <contour>
      <point x="162" y="-40" type="move" name="bottom"/>
    </contour>
    <contour>
      <point x="176" y="492" type="move" name="top"/>
    </contour>
  </outline>
</glyph>
<glyph name="behVbelow-ar.medi" format="1">
  <advance width="329"/>
  <outline>
    <component base="behDotless-ar.medi"/>
    <component base="vabove-ar" xOffset="2" yOffset="-709"/>
    <contour>
      <point x="151" y="-257" type="move" name="bottom"/>
    </contour>
    <contour>
      <point x="166" y="264" type="move" name="top"/>
    </contour>
  </outline>
</glyph>
<glyph name="behVinvertedbelow-ar.fina" format="1">
  <advance width="444"/>
  <outline>
    <component base="behDotless-ar.fina"/>
    <component base="vinvertedabove-ar" xOffset="43" yOffset="-702"/>
    <contour>
      <point x="221" y="-227" type="move" name="bottom"/>
    </contour>
    <contour>
      <point x="274" y="278" type="move" name="top"/>
    </contour>
  </outline>
</glyph>
<glyph name="behVinvertedbelow-ar.init" format="1">
  <advance width="339"/>
  <outline>
    <component base="behDotless-ar.init"/>
    <component base="vinvertedabove-ar" xOffset="-7" yOffset="-702"/>
    <contour>
      <point x="171" y="-227" type="move" name="bottom"/>
    </contour>
    <contour>
      <point x="174" y="282" type="move" name="top"/>
    </contour>
  </outline>
</glyph>
<glyph name="behhamzaabove-ar.medi" format="1">
  <advance width="329"/>
  <outline>
    <component base="beh-ar.medi"/>
    <component base="hamzaabove-ar" xOffset="48" yOffset="-187"/>
    <contour>
      <point x="167" y="-267" type="move" name="bottom"/>
    </contour>
    <contour>
      <point x="175" y="577" type="move" name="top"/>
    </contour>
  </outline>
</glyph>
<glyph name="e-ar.medi.alt" format="1">
  <advance width="197"/>
  <outline>
    <component base="behDotless-ar.medi.alt"/>
    <component base="twodotsverticalbelow-ar" xOffset="5" yOffset="-4"/>
    <contour>
      <point x="81" y="-417" type="move" name="bottom"/>
    </contour>
    <contour>
      <point x="64" y="425" type="move" name="top"/>
    </contour>
  </outline>
</glyph>
<glyph name="endofayah-ar.alt2.ss03" format="1">
  <advance width="1500"/>
  <outline>
    <contour>
      <point x="749" y="-471" type="curve" smooth="yes"/>
      <point x="1128" y="-471"/>
      <point x="1436" y="-164"/>
      <point x="1436" y="216" type="curve" smooth="yes"/>
      <point x="1436" y="596"/>
      <point x="1128" y="903"/>
      <point x="749" y="903" type="curve" smooth="yes"/>
      <point x="370" y="903"/>
      <point x="64" y="595"/>
      <point x="63" y="216" type="curve" smooth="yes"/>
      <point x="64" y="-163"/>
      <point x="370" y="-471"/>
    </contour>
    <contour>
      <point x="835" y="816" type="line"/>
      <point x="941" y="800"/>
      <point x="1040" y="761"/>
      <point x="1128" y="688" type="curve"/>
      <point x="1045" y="605" type="line"/>
    </contour>
    <contour>
      <point x="1149" y="672" type="line"/>
      <point x="1157" y="666"/>
      <point x="1161" y="661"/>
      <point x="1169" y="654" type="curve"/>
      <point x="1083" y="568" type="line"/>
      <point x="1064" y="587" type="line"/>
    </contour>
    <contour>
      <point x="1186" y="636" type="line"/>
      <point x="1194" y="628"/>
      <point x="1198" y="625"/>
      <point x="1205" y="616" type="curve"/>
      <point x="1120" y="531" type="line"/>
      <point x="1101" y="550" type="line"/>
    </contour>
    <contour>
      <point x="761" y="819" type="line"/>
      <point x="799" y="816" type="line"/>
      <point x="1349" y="264" type="line"/>
      <point x="1353" y="225" type="line"/>
    </contour>
    <contour>
      <point x="703" y="816" type="line"/>
      <point x="744" y="819" type="line"/>
      <point x="144" y="221" type="line"/>
      <point x="147" y="261" type="line"/>
    </contour>
    <contour>
      <point x="1222" y="597" type="line"/>
      <point x="1293" y="511"/>
      <point x="1332" y="410"/>
      <point x="1349" y="302" type="curve"/>
      <point x="1138" y="512" type="line"/>
    </contour>
    <contour>
      <point x="749" y="-443" type="curve" smooth="yes"/>
      <point x="384" y="-443"/>
      <point x="90" y="-148"/>
      <point x="91" y="216" type="curve" smooth="yes"/>
      <point x="90" y="580"/>
      <point x="384" y="874"/>
      <point x="749" y="874" type="curve" smooth="yes"/>
      <point x="1112" y="874"/>
      <point x="1407" y="580"/>
      <point x="1407" y="216" type="curve" smooth="yes"/>
      <point x="1407" y="-148"/>
      <point x="1113" y="-443"/>
    </contour>
    <contour>
      <point x="749" y="-420" type="curve" smooth="yes"/>
      <point x="1100" y="-418"/>
      <point x="1382" y="-134"/>
      <point x="1384" y="217" type="curve" smooth="yes"/>
      <point x="1382" y="565"/>
      <point x="1099" y="849"/>
      <point x="750" y="851" type="curve" smooth="yes"/>
      <point x="399" y="849"/>
      <point x="116" y="566"/>
      <point x="115" y="215" type="curve" smooth="yes"/>
      <point x="116" y="-134"/>
      <point x="400" y="-418"/>
    </contour>
    <contour>
      <point x="751" y="789" type="line"/>
      <point x="1325" y="214" type="line"/>
      <point x="751" y="-360" type="line"/>
      <point x="176" y="214" type="line"/>
    </contour>
    <contour>
      <point x="144" y="204" type="line"/>
      <point x="740" y="-391" type="line"/>
      <point x="703" y="-388" type="line"/>
      <point x="147" y="170" type="line"/>
    </contour>
    <contour>
      <point x="1355" y="207" type="line"/>
      <point x="1352" y="166" type="line"/>
      <point x="797" y="-389" type="line"/>
      <point x="762" y="-391" type="line"/>
    </contour>
    <contour>
      <point x="149" y="129" type="curve"/>
      <point x="360" y="-80" type="line"/>
      <point x="276" y="-164" type="line"/>
      <point x="203" y="-75"/>
      <point x="164" y="23"/>
    </contour>
    <contour>
      <point x="292" y="-184" type="curve"/>
      <point x="377" y="-99" type="line"/>
      <point x="396" y="-118" type="line"/>
      <point x="311" y="-204" type="line"/>
      <point x="304" y="-197"/>
      <point x="299" y="-192"/>
    </contour>
    <contour>
      <point x="329" y="-222" type="curve"/>
      <point x="415" y="-137" type="line"/>
      <point x="434" y="-156" type="line"/>
      <point x="348" y="-240" type="line"/>
      <point x="340" y="-233"/>
      <point x="336" y="-229"/>
    </contour>
    <contour>
      <point x="368" y="-257" type="curve"/>
      <point x="453" y="-174" type="line"/>
      <point x="662" y="-384" type="line"/>
      <point x="555" y="-367"/>
      <point x="454" y="-328"/>
    </contour>
    <contour>
      <point x="1350" y="128" type="line"/>
      <point x="1335" y="22"/>
      <point x="1296" y="-76"/>
      <point x="1223" y="-164" type="curve"/>
      <point x="1140" y="-81" type="line"/>
    </contour>
    <contour>
      <point x="1207" y="-185" type="line"/>
      <point x="1200" y="-193"/>
      <point x="1195" y="-198"/>
      <point x="1188" y="-205" type="curve"/>
      <point x="1102" y="-120" type="line"/>
      <point x="1122" y="-100" type="line"/>
    </contour>
    <contour>
      <point x="1171" y="-222" type="line"/>
      <point x="1162" y="-231"/>
      <point x="1159" y="-234"/>
      <point x="1151" y="-241" type="curve"/>
      <point x="1065" y="-157" type="line"/>
      <point x="1084" y="-137" type="line"/>
    </contour>
    <contour>
      <point x="1131" y="-258" type="line"/>
      <point x="1046" y="-329"/>
      <point x="944" y="-369"/>
      <point x="836" y="-386" type="curve"/>
      <point x="1046" y="-175" type="line"/>
    </contour>
    <contour>
      <point x="663" y="814" type="curve"/>
      <point x="454" y="604" type="line"/>
      <point x="370" y="687" type="line"/>
      <point x="459" y="760"/>
      <point x="557" y="799"/>
    </contour>
    <contour>
      <point x="350" y="671" type="curve"/>
      <point x="435" y="586" type="line"/>
      <point x="415" y="567" type="line"/>
      <point x="330" y="652" type="line"/>
      <point x="337" y="659"/>
      <point x="342" y="664"/>
    </contour>
    <contour>
      <point x="312" y="635" type="curve"/>
      <point x="397" y="548" type="line"/>
      <point x="378" y="529" type="line"/>
      <point x="294" y="615" type="line"/>
      <point x="301" y="623"/>
      <point x="304" y="627"/>
    </contour>
    <contour>
      <point x="277" y="595" type="curve"/>
      <point x="360" y="510" type="line"/>
      <point x="150" y="301" type="line"/>
      <point x="167" y="408"/>
      <point x="205" y="510"/>
    </contour>
  </outline>
</glyph>
<glyph name="fehAfrican-ar.medi" format="1">
  <advance width="538"/>
  <outline>
    <component base="fehDotless-ar.medi"/>
    <component base="dotbelow-ar" xOffset="173"/>
    <contour>
      <point x="284" y="-257" type="move" name="bottom"/>
    </contour>
    <contour>
      <point x="185" y="578" type="move" name="top"/>
    </contour>
  </outline>
</glyph>
<glyph name="fehDotmovedbelow-ar.fina.ss01" format="1">
  <advance width="558"/>
  <outline>
    <component base="fehDotless-ar.fina"/>
    <contour>
      <point x="282" y="-40" type="move" name="bottom"/>
    </contour>
    <contour>
      <point x="195" y="578" type="move" name="top"/>
    </contour>
  </outline>
</glyph>
<glyph name="fehDotmovedbelow-ar.init" format="1">
  <advance width="520"/>
  <outline>
    <component base="fehDotless-ar.init"/>
    <component base="dotbelow-ar" xOffset="143" yOffset="-10"/>
    <contour>
      <point x="246" y="-257" type="move" name="bottom"/>
    </contour>
    <contour>
      <point x="166" y="578" type="move" name="top"/>
    </contour>
  </outline>
</glyph>
<glyph name="fehTwodotsbelow-ar.fina" format="1">
  <advance width="558"/>
  <outline>
    <component base="fehDotless-ar.fina"/>
    <component base="twodotshorizontalbelow-ar" xOffset="123" yOffset="-40"/>
    <contour>
      <point x="298" y="-290" type="move" name="bottom"/>
    </contour>
    <contour>
      <point x="217" y="578" type="move" name="top"/>
    </contour>
  </outline>
</glyph>
<glyph name="fehTwodotsbelow-ar.medi" format="1">
  <advance width="538"/>
  <outline>
    <component base="fehDotless-ar.medi"/>
    <component base="twodotshorizontalbelow-ar" xOffset="103" yOffset="-40"/>
    <contour>
      <point x="276" y="-290" type="move" name="bottom"/>
    </contour>
    <contour>
      <point x="195" y="578" type="move" name="top"/>
    </contour>
  </outline>
</glyph>
<glyph name="five.osf" format="1">
  <advance width="441"/>
  <outline>
    <contour>
      <point x="7" y="-162" type="line"/>
      <point x="341" y="-137"/>
      <point x="416" y="-20"/>
      <point x="416" y="86" type="curve" smooth="yes"/>
      <point x="416" y="176"/>
      <point x="352" y="283"/>
      <point x="96" y="287" type="curve"/>
      <point x="41" y="166" type="line"/>
      <point x="56" y="167"/>
      <point x="71" y="167"/>
      <point x="85" y="167" type="curve" smooth="yes"/>
      <point x="238" y="167"/>
      <point x="288" y="110"/>
      <point x="288" y="53" type="curve" smooth="yes"/>
      <point x="288" y="-30"/>
      <point x="215" y="-89"/>
      <point x="1" y="-111" type="curve"/>
    </contour>
    <contour>
      <point x="41" y="166" type="curve"/>
      <point x="61" y="181"/>
      <point x="91" y="238"/>
      <point x="110" y="253" type="curve"/>
      <point x="133" y="364" type="line"/>
      <point x="168" y="364"/>
      <point x="301" y="364"/>
      <point x="388" y="341" type="curve"/>
      <point x="392" y="460" type="line"/>
      <point x="355" y="459"/>
      <point x="261" y="458"/>
      <point x="218" y="458" type="curve" smooth="yes"/>
      <point x="157" y="458"/>
      <point x="122" y="459"/>
      <point x="69" y="460" type="curve"/>
      <point x="64" y="378"/>
      <point x="54" y="258"/>
    </contour>
  </outline>
</glyph>
<glyph name="four.lf" format="1">
  <advance width="575"/>
  <outline>
    <contour>
      <point x="438" y="668" type="curve"/>
      <point x="374" y="668" type="line"/>
      <point x="265" y="508"/>
      <point x="137" y="348"/>
      <point x="20" y="218" type="curve"/>
      <point x="20" y="166" type="line"/>
      <point x="127" y="167"/>
      <point x="191" y="167"/>
      <point x="264" y="167" type="curve" smooth="yes"/>
      <point x="387" y="167"/>
      <point x="474" y="167"/>
      <point x="555" y="166" type="curve"/>
      <point x="555" y="248" type="line"/>
      <point x="479" y="246"/>
      <point x="453" y="245"/>
      <point x="333" y="245" type="curve" smooth="yes"/>
      <point x="270" y="245"/>
      <point x="197" y="246"/>
      <point x="163" y="248" type="curve"/>
      <point x="202" y="316"/>
      <point x="227" y="351"/>
      <point x="287" y="442" type="curve"/>
      <point x="287" y="355"/>
      <point x="289" y="312"/>
      <point x="289" y="223" type="curve" smooth="yes"/>
      <point x="289" y="155"/>
      <point x="289" y="85"/>
      <point x="285" y="10" type="curve"/>
      <point x="439" y="10" type="line"/>
      <point x="437" y="125"/>
      <point x="437" y="224"/>
      <point x="437" y="319" type="curve" smooth="yes"/>
      <point x="437" y="434"/>
      <point x="437" y="543"/>
    </contour>
    <contour>
      <point x="438" y="70" type="line"/>
      <point x="288" y="70" type="line"/>
      <point x="153" y="45" type="line"/>
      <point x="170" y="0" type="line"/>
      <point x="214" y="1"/>
      <point x="292" y="3"/>
      <point x="336" y="3" type="curve" smooth="yes"/>
      <point x="441" y="3"/>
      <point x="502" y="2"/>
      <point x="540" y="0" type="curve"/>
      <point x="555" y="45" type="line"/>
    </contour>
  </outline>
</glyph>
<glyph name="ghain-ar.medi.alt" format="1">
  <advance width="382"/>
  <outline>
    <component base="ain-ar.medi.alt"/>
    <component base="dotabove-ar" xOffset="36" yOffset="538"/>
    <contour>
      <point x="142" y="-40" type="move" name="bottom"/>
    </contour>
    <contour>
      <point x="147" y="1046" type="move" name="top"/>
    </contour>
  </outline>
</glyph>
<glyph name="hamzaaboveSukun-ar" format="1">
  <advance width="242"/>
  <outline>
    <component base="hamzaabove-ar"/>
    <component base="sukun-ar" xOffset="-6" yOffset="205"/>
    <contour>
      <point x="110" y="505" type="move" name="_top"/>
    </contour>
    <contour>
      <point x="110" y="988" type="move" name="top"/>
    </contour>
  </outline>
</glyph>
<glyph name="hamzabelowKasra-ar" format="1">
  <advance width="228"/>
  <outline>
    <component base="hamzabelow-ar"/>
    <component base="kasra-ar" xOffset="-11" yOffset="-204"/>
    <contour>
      <point x="111" y="-37" type="move" name="_bottom"/>
    </contour>
    <contour>
      <point x="116" y="-340" type="move" name="bottom"/>
    </contour>
  </outline>
</glyph>
<glyph name="hamzabelowKasratan-ar" format="1">
  <advance width="228"/>
  <outline>
    <component base="hamzabelow-ar"/>
    <component base="kasratan-ar" xOffset="-31" yOffset="-205"/>
    <contour>
      <point x="111" y="-37" type="move" name="_bottom"/>
    </contour>
    <contour>
      <point x="104" y="-430" type="move" name="bottom"/>
    </contour>
  </outline>
</glyph>
<glyph name="jeem-ar.fina.alt" format="1">
  <advance width="585"/>
  <outline>
    <component base="hah-ar.fina.alt"/>
    <component base="dotbelow-ar" xOffset="293"/>
    <contour>
      <point x="383" y="-260" type="move" name="bottom"/>
    </contour>
    <contour>
      <point x="421" y="384" type="move" name="top"/>
    </contour>
  </outline>
</glyph>
<glyph name="jeem-ar.medi.ss07" format="1">
  <advance width="403"/>
  <outline>
    <component base="hah-ar.medi"/>
    <component base="dotbelow-ar" xOffset="86"/>
    <contour>
      <point x="196" y="-260" type="move" name="bottom"/>
    </contour>
    <contour>
      <point x="213" y="367" type="move" name="top"/>
    </contour>
  </outline>
</glyph>
<glyph name="kafswash-ar.fina" format="1">
  <advance width="1124"/>
  <outline>
    <contour>
      <point x="1144" y="0" type="line"/>
      <point x="1144" y="140" type="line"/>
      <point x="1121" y="140"/>
      <point x="1110" y="140"/>
      <point x="1089" y="140" type="curve" smooth="yes"/>
      <point x="1071" y="140"/>
      <point x="1065" y="140"/>
      <point x="1065" y="163" type="curve" smooth="yes"/>
      <point x="1065" y="267"/>
      <point x="1061" y="334"/>
      <point x="1018" y="339" type="curve" smooth="yes"/>
      <point x="974" y="344"/>
      <point x="509" y="342"/>
      <point x="348" y="342" type="curve" smooth="yes"/>
      <point x="320" y="341"/>
      <point x="318" y="345"/>
      <point x="331" y="358" type="curve" smooth="yes"/>
      <point x="405" y="435"/>
      <point x="576" y="549"/>
      <point x="666" y="614" type="curve"/>
      <point x="663" y="627"/>
      <point x="652" y="635"/>
      <point x="640" y="637" type="curve"/>
      <point x="492" y="567"/>
      <point x="229" y="430"/>
      <point x="122" y="340" type="curve"/>
      <point x="125" y="265"/>
      <point x="140" y="199"/>
      <point x="170" y="200" type="curve" smooth="yes"/>
      <point x="296" y="203"/>
      <point x="878" y="205"/>
      <point x="950" y="201" type="curve" smooth="yes"/>
      <point x="991" y="199"/>
      <point x="1004" y="198"/>
      <point x="1004" y="153" type="curve" smooth="yes"/>
      <point x="1004" y="141"/>
      <point x="1001" y="140"/>
      <point x="983" y="140" type="curve" smooth="yes"/>
      <point x="50" y="140" type="line"/>
      <point x="50" y="78"/>
      <point x="58" y="0"/>
      <point x="90" y="0" type="curve" smooth="yes"/>
    </contour>
    <contour>
      <point x="587" y="-40" type="move" name="bottom"/>
    </contour>
    <contour>
      <point x="234" y="490" type="move" name="top"/>
    </contour>
  </outline>
</glyph>
<glyph name="kehehThreedotsabove-ar.fina" format="1">
  <advance width="784"/>
  <outline>
    <component base="ng-ar.fina"/>
    <contour>
      <point x="412" y="-40" type="move" name="bottom"/>
    </contour>
    <contour>
      <point x="185" y="830" type="move" name="top"/>
    </contour>
  </outline>
</glyph>
<glyph name="kehehThreedotsabove-ar.fina.ss05" format="1">
  <advance width="784"/>
  <outline>
    <component base="kaf-ar.fina"/>
    <component base="threedots-ar" xOffset="-15" yOffset="525"/>
    <contour>
      <point x="412" y="-40" type="move" name="bottom"/>
    </contour>
    <contour>
      <point x="165" y="760" type="move" name="top"/>
    </contour>
  </outline>
</glyph>
<glyph name="kehehThreedotsabove-ar.init" format="1">
  <advance width="800"/>
  <outline>
    <component base="ng-ar.init"/>
    <contour>
      <point x="402" y="-40" type="move" name="bottom"/>
    </contour>
    <contour>
      <point x="185" y="820" type="move" name="top"/>
    </contour>
  </outline>
</glyph>
<glyph name="kehehThreedotsabove-ar.init.ss05" format="1">
  <advance width="800"/>
  <outline>
    <component base="kaf-ar.init"/>
    <component base="threedots-ar" xOffset="15" yOffset="525"/>
    <contour>
      <point x="402" y="-40" type="move" name="bottom"/>
    </contour>
    <contour>
      <point x="191" y="760" type="move" name="top"/>
    </contour>
  </outline>
</glyph>
<glyph name="khah-ar.medi.ss07" format="1">
  <advance width="403"/>
  <outline>
    <component base="hah-ar.medi"/>
    <component base="dotabove-ar" xOffset="89" yOffset="56"/>
    <contour>
      <point x="202" y="-40" type="move" name="bottom"/>
    </contour>
    <contour>
      <point x="195" y="586" type="move" name="top"/>
    </contour>
  </outline>
</glyph>
<glyph name="meem-ar.medi.alt" format="1">
  <advance width="400"/>
  <outline>
    <contour>
      <point x="-21" y="347" type="curve"/>
      <point x="-21" y="207" type="line"/>
      <point x="-7" y="207"/>
      <point x="16" y="207"/>
      <point x="39" y="207" type="curve" smooth="yes"/>
      <point x="45" y="207"/>
      <point x="46" y="201"/>
      <point x="48" y="158" type="curve" smooth="yes"/>
      <point x="52" y="64"/>
      <point x="70" y="0"/>
      <point x="98" y="0" type="curve" smooth="yes"/>
      <point x="213" y="0"/>
      <point x="273" y="0"/>
      <point x="420" y="0" type="curve"/>
      <point x="420" y="140" type="line"/>
      <point x="348" y="140" type="line" smooth="yes"/>
      <point x="326" y="140"/>
      <point x="325" y="140"/>
      <point x="325" y="206" type="curve" smooth="yes"/>
      <point x="325" y="367"/>
      <point x="284" y="456"/>
      <point x="191" y="456" type="curve" smooth="yes"/>
      <point x="129" y="456"/>
      <point x="95" y="411"/>
      <point x="73" y="373" type="curve" smooth="yes"/>
      <point x="61" y="352"/>
      <point x="59" y="347"/>
      <point x="43" y="347" type="curve" smooth="yes"/>
      <point x="36" y="347"/>
      <point x="22" y="347"/>
    </contour>
    <contour>
      <point x="186" y="136" type="curve" smooth="yes"/>
      <point x="121" y="136"/>
      <point x="112" y="149"/>
      <point x="112" y="215" type="curve" smooth="yes"/>
      <point x="112" y="272"/>
      <point x="136" y="302"/>
      <point x="186" y="302" type="curve" smooth="yes"/>
      <point x="235" y="302"/>
      <point x="259" y="269"/>
      <point x="259" y="210" type="curve" smooth="yes"/>
      <point x="259" y="146"/>
      <point x="245" y="136"/>
    </contour>
    <contour>
      <point x="192" y="-40" type="move" name="bottom"/>
    </contour>
    <contour>
      <point x="187" y="500" type="move" name="top"/>
    </contour>
  </outline>
</glyph>
<glyph name="noon-ar.alt2.ss01" format="1">
  <advance width="253"/>
  <outline>
    <contour>
      <point x="119" y="63" type="curve"/>
      <point x="-75" y="-295"/>
      <point x="-401" y="-511"/>
      <point x="-760" y="-511" type="curve" smooth="yes"/>
      <point x="-869" y="-511"/>
      <point x="-980" y="-492"/>
      <point x="-1092" y="-450" type="curve"/>
      <point x="-1093" y="-458"/>
      <point x="-1094" y="-467"/>
      <point x="-1094" y="-475" type="curve" smooth="yes"/>
      <point x="-1094" y="-533"/>
      <point x="-1065" y="-592"/>
      <point x="-1032" y="-604" type="curve" smooth="yes"/>
      <point x="-939" y="-637"/>
      <point x="-867" y="-647"/>
      <point x="-758" y="-647" type="curve" smooth="yes"/>
      <point x="-235" y="-647"/>
      <point x="54" y="-246"/>
      <point x="172" y="-79" type="curve" smooth="yes"/>
      <point x="182" y="-67"/>
      <point x="183" y="-30"/>
      <point x="183" y="33" type="curve" smooth="yes"/>
      <point x="183" y="99"/>
      <point x="177" y="181"/>
      <point x="166" y="256" type="curve"/>
      <point x="147" y="256"/>
      <point x="125" y="252"/>
      <point x="106" y="245" type="curve" smooth="yes"/>
      <point x="98" y="242"/>
      <point x="94" y="238"/>
      <point x="94" y="234" type="curve" smooth="yes"/>
      <point x="94" y="233"/>
      <point x="94" y="232"/>
      <point x="94" y="231" type="curve" smooth="yes"/>
      <point x="107" y="184"/>
      <point x="121" y="105"/>
    </contour>
    <contour>
      <point x="130" y="-278" type="move" name="bottom"/>
    </contour>
    <contour>
      <point x="116" y="299" type="move" name="top"/>
    </contour>
  </outline>
</glyph>
<glyph name="noon-ar.fina.alt.ss01" format="1">
  <advance width="252"/>
  <outline>
    <component base="noonghunna-ar.fina.alt"/>
    <contour>
      <point x="120" y="-218" type="move" name="bottom"/>
    </contour>
    <contour>
      <point x="122" y="299" type="move" name="top"/>
    </contour>
  </outline>
</glyph>
<glyph name="noon-ar.fina.ss01" format="1">
  <advance width="252"/>
  <outline>
    <component base="noonghunna-ar.fina"/>
    <contour>
      <point x="100" y="-268" type="move" name="bottom"/>
    </contour>
    <contour>
      <point x="102" y="299" type="move" name="top"/>
    </contour>
  </outline>
</glyph>
<glyph name="noon-ar.medi.alt" format="1">
  <advance width="197"/>
  <outline>
    <component base="behDotless-ar.medi.alt"/>
    <component base="dotabove-ar" xOffset="-53" yOffset="147"/>
    <contour>
      <point x="82" y="-40" type="move" name="bottom"/>
    </contour>
    <contour>
      <point x="61" y="653" type="move" name="top"/>
    </contour>
  </outline>
</glyph>
<glyph name="noonAfrican-ar.alt" format="1">
  <advance width="240"/>
  <outline>
    <component base="noonghunna-ar.alt"/>
    <contour>
      <point x="120" y="-218" type="move" name="bottom"/>
    </contour>
    <contour>
      <point x="122" y="299" type="move" name="top"/>
    </contour>
  </outline>
</glyph>
<glyph name="noonAfrican-ar.fina" format="1">
  <advance width="252"/>
  <outline>
    <component base="noonghunna-ar.fina"/>
    <contour>
      <point x="100" y="-268" type="move" name="bottom"/>
    </contour>
    <contour>
      <point x="102" y="299" type="move" name="top"/>
    </contour>
  </outline>
</glyph>
<glyph name="noonAfrican-ar.medi" format="1">
  <advance width="329"/>
  <outline>
    <component base="behDotless-ar.medi"/>
    <component base="dotabove-ar" xOffset="79"/>
    <contour>
      <point x="162" y="-40" type="move" name="bottom"/>
    </contour>
    <contour>
      <point x="156" y="520" type="move" name="top"/>
    </contour>
  </outline>
</glyph>
<glyph name="noonTwodotsbelow-ar.fina.alt" format="1">
  <advance width="252"/>
  <outline>
    <component base="noonghunna-ar.fina.alt"/>
    <component base="dotabove-ar" xOffset="11" yOffset="15"/>
    <component base="twodotshorizontalbelow-ar" xOffset="-535" yOffset="-278"/>
    <contour>
      <point x="120" y="-218" type="move" name="bottom"/>
    </contour>
    <contour>
      <point x="122" y="558" type="move" name="top"/>
    </contour>
  </outline>
</glyph>
<glyph name="noonTwodotsbelow-ar.fina" format="1">
  <advance width="252"/>
  <outline>
    <component base="noon-ar.fina.ss01"/>
    <component base="twodotshorizontalbelow-ar" xOffset="-799" yOffset="-493"/>
    <component base="dotabove-ar" xOffset="-9" yOffset="15"/>
    <contour>
      <point x="100" y="-268" type="move" name="bottom"/>
    </contour>
    <contour>
      <point x="66" y="547" type="move" name="top"/>
    </contour>
  </outline>
</glyph>
<glyph name="noonTwodotsbelow-ar.medi.alt" format="1">
  <advance width="197"/>
  <outline>
    <component base="noon-ar.medi.alt"/>
    <component base="twodotsnarrow-ar" xOffset="-92" yOffset="-212"/>
    <contour>
      <point x="66" y="-247" type="move" name="bottom"/>
    </contour>
    <contour>
      <point x="51" y="675" type="move" name="top"/>
    </contour>
  </outline>
</glyph>
<glyph name="noonTwodotsbelow-ar.medi" format="1">
  <advance width="329"/>
  <outline>
    <component base="noon-ar.medi"/>
    <component base="twodotshorizontalbelow-ar" xOffset="-27" yOffset="-10"/>
    <contour>
      <point x="146" y="-247" type="move" name="bottom"/>
    </contour>
    <contour>
      <point x="151" y="505" type="move" name="top"/>
    </contour>
  </outline>
</glyph>
<glyph name="noonghunna-ar.medi" format="1">
  <advance width="329"/>
  <outline>
    <component base="behDotless-ar.medi"/>
    <contour>
      <point x="162" y="-40" type="move" name="bottom"/>
    </contour>
    <contour>
      <point x="159" y="298" type="move" name="top"/>
    </contour>
  </outline>
</glyph>
<glyph name="one-ar.alt" format="1">
  <advance width="230"/>
  <outline>
    <contour>
      <point x="114" y="-14" type="curve"/>
      <point x="129" y="-11"/>
      <point x="142" y="-7"/>
      <point x="150" y="5" type="curve"/>
      <point x="165" y="72"/>
      <point x="174" y="153"/>
      <point x="174" y="232" type="curve" smooth="yes"/>
      <point x="174" y="305"/>
      <point x="167" y="394"/>
      <point x="144" y="468" type="curve"/>
      <point x="106" y="468"/>
      <point x="61" y="427"/>
      <point x="50" y="403" type="curve"/>
      <point x="97" y="292"/>
      <point x="115" y="158"/>
    </contour>
  </outline>
</glyph>
<glyph name="one.osf" format="1">
  <advance width="404"/>
  <outline>
    <contour>
      <point x="287" y="462" type="curve"/>
      <point x="232" y="462" type="line"/>
      <point x="162" y="414"/>
      <point x="101" y="401"/>
      <point x="15" y="393" type="curve"/>
      <point x="37" y="343" type="line"/>
      <point x="145" y="344" type="line"/>
      <point x="148" y="275"/>
      <point x="150" y="251"/>
      <point x="150" y="208" type="curve" smooth="yes"/>
      <point x="150" y="144"/>
      <point x="150" y="110"/>
      <point x="149" y="65" type="curve"/>
      <point x="37" y="38" type="line"/>
      <point x="50" y="0" type="line"/>
      <point x="88" y="1"/>
      <point x="175" y="3"/>
      <point x="224" y="3" type="curve" smooth="yes"/>
      <point x="289" y="3"/>
      <point x="338" y="2"/>
      <point x="376" y="0" type="curve"/>
      <point x="389" y="38" type="line"/>
      <point x="287" y="65" type="line"/>
      <point x="284" y="126"/>
      <point x="284" y="161"/>
      <point x="284" y="214" type="curve" smooth="yes"/>
      <point x="284" y="287"/>
      <point x="285" y="361"/>
    </contour>
  </outline>
</glyph>
<glyph name="peh-ar.medi.alt" format="1">
  <advance width="197"/>
  <outline>
    <component base="behDotless-ar.medi.alt"/>
    <component base="threedotsdownbelow-ar" xOffset="-78" yOffset="-31"/>
    <contour>
      <point x="84" y="-487" type="move" name="bottom"/>
    </contour>
    <contour>
      <point x="40" y="426" type="move" name="top"/>
    </contour>
  </outline>
</glyph>
<glyph name="qafAfrican-ar.fina" format="1">
  <advance width="589"/>
  <outline>
    <component base="qafDotabove-ar.fina.ss01"/>
    <contour>
      <point x="514" y="-134" type="move" name="bottom"/>
    </contour>
    <contour>
      <point x="212" y="374" type="move" name="top"/>
    </contour>
  </outline>
</glyph>
<glyph name="qafAfrican-ar.medi" format="1">
  <advance width="538"/>
  <outline>
    <component base="fehDotless-ar.medi"/>
    <component base="dotabove-ar" xOffset="43" yOffset="244"/>
    <contour>
      <point x="282" y="-40" type="move" name="bottom"/>
    </contour>
    <contour>
      <point x="151" y="761" type="move" name="top"/>
    </contour>
  </outline>
</glyph>
<glyph name="qafDotless-ar.init" format="1">
  <advance width="520"/>
  <outline>
    <component base="fehDotless-ar.init"/>
    <contour>
      <point x="222" y="-40" type="move" name="bottom"/>
    </contour>
    <contour>
      <point x="165" y="578" type="move" name="top"/>
    </contour>
  </outline>
</glyph>
<glyph name="qafThreedotsabove-ar.fina" format="1">
  <advance width="589"/>
  <outline>
    <component base="qafDotless-ar.fina"/>
    <component base="threedotsupabove-ar" xScale="0.826" yScale="0.826" xOffset="36" yOffset="103"/>
    <contour>
      <point x="514" y="-134" type="move" name="bottom"/>
    </contour>
    <contour>
      <point x="187" y="705" type="move" name="top"/>
    </contour>
  </outline>
</glyph>
<glyph name="qafThreedotsabove-ar.medi" format="1">
  <advance width="538"/>
  <outline>
    <component base="fehDotless-ar.medi"/>
    <component base="threedotsupabove-ar" xScale="0.826" yScale="0.826" xOffset="6" yOffset="303"/>
    <contour>
      <point x="282" y="-40" type="move" name="bottom"/>
    </contour>
    <contour>
      <point x="157" y="885" type="move" name="top"/>
    </contour>
  </outline>
</glyph>
<glyph name="seen-ar.medi.alt" format="1">
  <advance width="448"/>
  <outline>
    <contour>
      <point x="-20" y="341" type="curve"/>
      <point x="-20" y="207" type="line"/>
      <point x="-8" y="207"/>
      <point x="8" y="207"/>
      <point x="27" y="207" type="curve" smooth="yes"/>
      <point x="45" y="207"/>
      <point x="49" y="201"/>
      <point x="51" y="158" type="curve" smooth="yes"/>
      <point x="55" y="74"/>
      <point x="65" y="0"/>
      <point x="94" y="0" type="curve" smooth="yes"/>
      <point x="468" y="0" type="line"/>
      <point x="468" y="140" type="line"/>
      <point x="388" y="140" type="line" smooth="yes"/>
      <point x="376" y="140"/>
      <point x="370" y="140"/>
      <point x="370" y="182" type="curve" smooth="yes"/>
      <point x="370" y="330"/>
      <point x="364" y="355"/>
      <point x="359" y="388" type="curve"/>
      <point x="342" y="388"/>
      <point x="318" y="384"/>
      <point x="303" y="378" type="curve" smooth="yes"/>
      <point x="294" y="374"/>
      <point x="291" y="372"/>
      <point x="291" y="366" type="curve" smooth="yes"/>
      <point x="291" y="358"/>
      <point x="306" y="320"/>
      <point x="306" y="203" type="curve" smooth="yes"/>
      <point x="306" y="147"/>
      <point x="305" y="140"/>
      <point x="295" y="140" type="curve" smooth="yes"/>
      <point x="255" y="140" type="line" smooth="yes"/>
      <point x="244" y="140"/>
      <point x="241" y="144"/>
      <point x="241" y="199" type="curve" smooth="yes"/>
      <point x="241" y="300"/>
      <point x="236" y="355"/>
      <point x="231" y="388" type="curve"/>
      <point x="214" y="388"/>
      <point x="189" y="384"/>
      <point x="174" y="378" type="curve" smooth="yes"/>
      <point x="165" y="374"/>
      <point x="162" y="372"/>
      <point x="162" y="366" type="curve" smooth="yes"/>
      <point x="162" y="358"/>
      <point x="176" y="320"/>
      <point x="177" y="203" type="curve" smooth="yes"/>
      <point x="178" y="140"/>
      <point x="176" y="140"/>
      <point x="164" y="140" type="curve" smooth="yes"/>
      <point x="136" y="140" type="line" smooth="yes"/>
      <point x="113" y="140"/>
      <point x="111" y="151"/>
      <point x="109" y="196" type="curve" smooth="yes"/>
      <point x="107" y="254"/>
      <point x="106" y="287"/>
      <point x="97" y="388" type="curve"/>
      <point x="80" y="388"/>
      <point x="57" y="384"/>
      <point x="42" y="378" type="curve" smooth="yes"/>
      <point x="33" y="374"/>
      <point x="30" y="372"/>
      <point x="30" y="366" type="curve" smooth="yes"/>
      <point x="30" y="359"/>
      <point x="34" y="355"/>
      <point x="34" y="347" type="curve" smooth="yes"/>
      <point x="34" y="343"/>
      <point x="33" y="341"/>
      <point x="28" y="341" type="curve" smooth="yes"/>
      <point x="14" y="341"/>
      <point x="11" y="341"/>
    </contour>
    <contour>
      <point x="205" y="-40" type="move" name="bottom"/>
    </contour>
    <contour>
      <point x="198" y="410" type="move" name="top"/>
    </contour>
  </outline>
</glyph>
<glyph name="seven.alt" format="1">
  <advance width="350"/>
  <outline>
    <contour>
      <point x="87" y="377" type="curve"/>
      <point x="122" y="378"/>
      <point x="134" y="378"/>
      <point x="166" y="378" type="curve" smooth="yes"/>
      <point x="192" y="378"/>
      <point x="223" y="378"/>
      <point x="253" y="377" type="curve"/>
      <point x="175" y="240"/>
      <point x="127" y="130"/>
      <point x="100" y="-1" type="curve"/>
      <point x="205" y="-1" type="line"/>
      <point x="212" y="95"/>
      <point x="226" y="234"/>
      <point x="338" y="435" type="curve"/>
      <point x="321" y="461" type="line"/>
      <point x="276" y="459"/>
      <point x="236" y="459"/>
      <point x="173" y="459" type="curve" smooth="yes"/>
      <point x="134" y="459"/>
      <point x="77" y="459"/>
      <point x="34" y="461" type="curve"/>
      <point x="34" y="425"/>
      <point x="31" y="360"/>
      <point x="28" y="306" type="curve"/>
      <point x="62" y="306" type="line"/>
      <point x="69" y="329"/>
      <point x="77" y="352"/>
    </contour>
  </outline>
</glyph>
<glyph name="seven.latn" format="1">
  <advance width="514"/>
  <outline>
    <contour>
      <point x="120" y="560" type="curve"/>
      <point x="170" y="562"/>
      <point x="187" y="562"/>
      <point x="233" y="562" type="curve" smooth="yes"/>
      <point x="270" y="562"/>
      <point x="329" y="562"/>
      <point x="372" y="560" type="curve"/>
      <point x="245" y="365"/>
      <point x="174" y="187"/>
      <point x="147" y="0" type="curve"/>
      <point x="286" y="0" type="line"/>
      <point x="296" y="137"/>
      <point x="315" y="336"/>
      <point x="479" y="627" type="curve"/>
      <point x="451" y="660" type="line"/>
      <point x="387" y="658"/>
      <point x="330" y="657"/>
      <point x="240" y="657" type="curve" smooth="yes"/>
      <point x="184" y="657"/>
      <point x="102" y="658"/>
      <point x="41" y="660" type="curve"/>
      <point x="41" y="609"/>
      <point x="39" y="536"/>
      <point x="35" y="458" type="curve"/>
      <point x="84" y="458" type="line"/>
      <point x="94" y="491"/>
      <point x="105" y="524"/>
    </contour>
  </outline>
</glyph>
<glyph name="seven.osf" format="1">
  <advance width="483"/>
  <outline>
    <contour>
      <point x="109" y="360" type="curve"/>
      <point x="159" y="362"/>
      <point x="176" y="362"/>
      <point x="222" y="362" type="curve" smooth="yes"/>
      <point x="259" y="362"/>
      <point x="309" y="362"/>
      <point x="352" y="360" type="curve"/>
      <point x="222" y="165"/>
      <point x="160" y="12"/>
      <point x="136" y="-175" type="curve"/>
      <point x="275" y="-175" type="line"/>
      <point x="282" y="-38"/>
      <point x="292" y="156"/>
      <point x="459" y="427" type="curve"/>
      <point x="431" y="460" type="line"/>
      <point x="367" y="458"/>
      <point x="310" y="457"/>
      <point x="229" y="457" type="curve" smooth="yes"/>
      <point x="173" y="457"/>
      <point x="91" y="458"/>
      <point x="30" y="460" type="curve"/>
      <point x="30" y="409"/>
      <point x="28" y="336"/>
      <point x="24" y="258" type="curve"/>
      <point x="73" y="258" type="line"/>
      <point x="83" y="291"/>
      <point x="94" y="324"/>
    </contour>
  </outline>
</glyph>
<glyph name="shaddaAlefabove-ar" format="1">
  <advance width="263"/>
  <outline>
    <component base="shadda-ar"/>
    <component base="alefabove-ar" xOffset="80" yOffset="229"/>
    <contour>
      <point x="134" y="536" type="move" name="_top"/>
    </contour>
    <contour>
      <point x="128" y="1040" type="move" name="top"/>
    </contour>
  </outline>
</glyph>
<glyph name="shaddaDamma-ar" format="1">
  <advance width="279"/>
  <outline>
    <component base="shadda-ar" xOffset="16"/>
    <component base="damma-ar" xOffset="13" yOffset="216"/>
    <contour>
      <point x="150" y="536" type="move" name="_top"/>
    </contour>
    <contour>
      <point x="129" y="963" type="move" name="top"/>
    </contour>
  </outline>
</glyph>
<glyph name="shaddaDammatan-ar" format="1">
  <advance width="279"/>
  <outline>
    <component base="shadda-ar" xOffset="16"/>
    <component base="dammatan-ar" xOffset="16" yOffset="245"/>
    <contour>
      <point x="150" y="536" type="move" name="_top"/>
    </contour>
    <contour>
      <point x="133" y="1013" type="move" name="top"/>
    </contour>
  </outline>
</glyph>
<glyph name="sheen-ar.medi.alt" format="1">
  <advance width="448"/>
  <outline>
    <component base="seen-ar.medi.alt"/>
    <component base="threedotsupabove-ar" xOffset="15" yOffset="107"/>
    <contour>
      <point x="202" y="-40" type="move" name="bottom"/>
    </contour>
    <contour>
      <point x="191" y="800" type="move" name="top"/>
    </contour>
  </outline>
</glyph>
<glyph name="six.lf" format="1">
  <advance width="522"/>
  <outline>
    <contour>
      <point x="131" y="357" type="curve"/>
      <point x="141" y="291" type="line"/>
      <point x="148" y="305"/>
      <point x="185" y="343"/>
      <point x="249" y="343" type="curve" smooth="yes"/>
      <point x="322" y="343"/>
      <point x="357" y="258"/>
      <point x="357" y="181" type="curve" smooth="yes"/>
      <point x="357" y="105"/>
      <point x="331" y="45"/>
      <point x="281" y="45" type="curve" smooth="yes"/>
      <point x="232" y="45"/>
      <point x="176" y="105"/>
      <point x="176" y="268" type="curve" smooth="yes"/>
      <point x="176" y="418"/>
      <point x="255" y="553"/>
      <point x="443" y="635" type="curve"/>
      <point x="427" y="673" type="line"/>
      <point x="137" y="587"/>
      <point x="26" y="420"/>
      <point x="26" y="252" type="curve" smooth="yes"/>
      <point x="26" y="108"/>
      <point x="107" y="-6"/>
      <point x="264" y="-6" type="curve" smooth="yes"/>
      <point x="426" y="-6"/>
      <point x="497" y="105"/>
      <point x="497" y="215" type="curve" smooth="yes"/>
      <point x="497" y="320"/>
      <point x="432" y="413"/>
      <point x="283" y="413" type="curve" smooth="yes"/>
      <point x="229" y="413"/>
      <point x="161" y="383"/>
    </contour>
  </outline>
</glyph>
<glyph name="space-ar" format="1">
  <advance width="70"/>
  <outline>
    <contour>
      <point x="37" y="-60" type="move" name="bottom"/>
    </contour>
    <contour>
      <point x="34" y="305" type="move" name="top"/>
    </contour>
  </outline>
</glyph>
<glyph name="tahThreedots-ar.fina" format="1">
  <advance width="798"/>
  <outline>
    <component base="tah-ar.fina"/>
    <component base="threedotsupabove-ar" xOffset="246" yOffset="123"/>
    <contour>
      <point x="402" y="-40" type="move" name="bottom"/>
    </contour>
    <contour>
      <point x="425" y="832" type="move" name="top"/>
    </contour>
  </outline>
</glyph>
<glyph name="tahThreedots-ar.init" format="1">
  <advance width="747"/>
  <outline>
    <component base="tah-ar.init"/>
    <component base="threedotsupabove-ar" xOffset="204" yOffset="113"/>
    <contour>
      <point x="372" y="-40" type="move" name="bottom"/>
    </contour>
    <contour>
      <point x="385" y="822" type="move" name="top"/>
    </contour>
  </outline>
</glyph>
<glyph name="tahThreedots-ar.init.ss05" format="1">
  <advance width="747"/>
  <outline>
    <component base="tah-ar.init"/>
    <component base="threedots-ar" xOffset="210" yOffset="430"/>
    <contour>
      <point x="372" y="-40" type="move" name="bottom"/>
    </contour>
    <contour>
      <point x="384" y="672" type="move" name="top"/>
    </contour>
  </outline>
</glyph>
<glyph name="tahThreedots-ar.medi" format="1">
  <advance width="789"/>
  <outline>
    <component base="tah-ar.medi"/>
    <component base="threedotsupabove-ar" xOffset="248" yOffset="113"/>
    <contour>
      <point x="422" y="-40" type="move" name="bottom"/>
    </contour>
    <contour>
      <point x="425" y="832" type="move" name="top"/>
    </contour>
  </outline>
</glyph>
<glyph name="thal-ar.alt" format="1">
  <advance width="418"/>
  <outline>
    <component base="dotabove-ar" xOffset="168" yOffset="2"/>
    <component base="dal-ar.alt"/>
    <contour>
      <point x="275" y="-40" type="move" name="bottom"/>
    </contour>
    <contour>
      <point x="271" y="540" type="move" name="top"/>
    </contour>
  </outline>
</glyph>
<glyph name="thal-ar.fina.alt" format="1">
  <advance width="435"/>
  <outline>
    <component base="dotabove-ar" xOffset="158" yOffset="2"/>
    <component base="dal-ar.fina.alt"/>
    <contour>
      <point x="282" y="-40" type="move" name="bottom"/>
    </contour>
    <contour>
      <point x="251" y="540" type="move" name="top"/>
    </contour>
  </outline>
</glyph>
<glyph name="threedotsabovesmall-ar" format="1">
  <advance width="271"/>
  <outline>
    <component base="threedotsupabove-ar" xScale="0.826" yScale="0.826" xOffset="-14" yOffset="133"/>
    <contour>
      <point x="135" y="393" type="move" name="_top"/>
    </contour>
  </outline>
</glyph>
<glyph name="threedotsdownabove-ar" format="1">
  <advance width="358"/>
  <outline>
    <component base="twodotshorizontalabove-ar" xOffset="3" yOffset="217"/>
    <component base="dotabove-ar" xOffset="73" yOffset="20"/>
    <contour>
      <point x="185" y="303" type="move" name="_top"/>
    </contour>
  </outline>
</glyph>
<glyph name="threedotsupabove-ar" format="1">
  <advance width="358"/>
  <outline>
    <component base="twodotshorizontalabove-ar" xOffset="3" yOffset="3"/>
    <component base="dotabove-ar" xOffset="67" yOffset="188"/>
    <contour>
      <point x="183" y="303" type="move" name="_top"/>
    </contour>
  </outline>
</glyph>
<glyph name="two.lf" format="1">
  <advance width="509"/>
  <outline>
    <contour>
      <point x="20" y="499" type="curve"/>
      <point x="45" y="460" type="line"/>
      <point x="127" y="542"/>
      <point x="183" y="567"/>
      <point x="235" y="567" type="curve" smooth="yes"/>
      <point x="279" y="567"/>
      <point x="332" y="541"/>
      <point x="332" y="471" type="curve" smooth="yes"/>
      <point x="332" y="385"/>
      <point x="280" y="305"/>
      <point x="23" y="31" type="curve"/>
      <point x="38" y="0" type="line"/>
      <point x="102" y="3"/>
      <point x="180" y="4"/>
      <point x="254" y="4" type="curve" smooth="yes"/>
      <point x="338" y="4"/>
      <point x="410" y="3"/>
      <point x="482" y="0" type="curve"/>
      <point x="466" y="114" type="line"/>
      <point x="353" y="99"/>
      <point x="226" y="98"/>
      <point x="133" y="99" type="curve"/>
      <point x="127" y="47" type="line"/>
      <point x="328" y="271"/>
      <point x="475" y="352"/>
      <point x="475" y="501" type="curve" smooth="yes"/>
      <point x="475" y="604"/>
      <point x="392" y="668"/>
      <point x="288" y="668" type="curve" smooth="yes"/>
      <point x="173" y="668"/>
      <point x="94" y="595"/>
    </contour>
    <contour>
      <point x="397" y="105" type="curve"/>
      <point x="482" y="0" type="line"/>
      <point x="480" y="71"/>
      <point x="483" y="145"/>
      <point x="489" y="215" type="curve"/>
      <point x="436" y="215" type="line"/>
      <point x="422" y="179"/>
      <point x="413" y="145"/>
    </contour>
  </outline>
</glyph>
<glyph name="twodotshorizontalbelow-ar" format="1">
  <advance width="358"/>
  <outline>
    <component base="twodotshorizontalabove-ar" yOffset="-520"/>
    <contour>
      <point x="179" y="0" type="move" name="_bottom"/>
    </contour>
  </outline>
</glyph>
<glyph name="twodotsverticalbelow-ar" format="1">
  <advance width="171"/>
  <outline>
    <component base="twodotsverticalabove-ar" yOffset="-700"/>
    <contour>
      <point x="89" y="0" type="move" name="_bottom"/>
    </contour>
  </outline>
</glyph>
<glyph name="yeh-ar.alt" format="1">
  <advance width="522"/>
  <outline>
    <component base="twodotshorizontalbelow-ar" xOffset="-294" yOffset="-299"/>
    <component base="alefMaksura-ar.alt"/>
    <contour>
      <point x="411" y="-139" type="move" name="bottom"/>
    </contour>
    <contour>
      <point x="217" y="301" type="move" name="top"/>
    </contour>
  </outline>
</glyph>
<glyph name="yeh-ar.fina.ss01" format="1">
  <advance width="562"/>
  <outline>
    <component base="alefMaksura-ar.fina"/>
    <contour>
      <point x="391" y="-139" type="move" name="bottom"/>
    </contour>
    <contour>
      <point x="217" y="301" type="move" name="top"/>
    </contour>
  </outline>
</glyph>
<glyph name="yeh-ar.medi.alt" format="1">
  <advance width="197"/>
  <outline>
    <component base="behDotless-ar.medi.alt"/>
    <component base="twodotsnarrow-ar" xOffset="-58" yOffset="-196"/>
    <contour>
      <point x="84" y="-224" type="move" name="bottom"/>
    </contour>
    <contour>
      <point x="68" y="420" type="move" name="top"/>
    </contour>
  </outline>
</glyph>
<glyph name="yeh-farsi.fina.ss05" format="1">
  <advance width="562"/>
  <outline>
    <component base="alefMaksura-ar.fina"/>
    <component base="threedots-ar" xOffset="-26" yOffset="317"/>
    <contour>
      <point x="391" y="-139" type="move" name="bottom"/>
    </contour>
    <contour>
      <point x="133" y="567" type="move" name="top"/>
    </contour>
  </outline>
</glyph>
<glyph name="yehThreedotsbelow-ar.fina" format="1">
  <advance width="522"/>
  <outline>
    <component base="threedotsdownbelow-ar" xOffset="-323" yOffset="-291"/>
    <component base="alefMaksura-ar.fina.alt"/>
    <contour>
      <point x="451" y="-139" type="move" name="bottom"/>
    </contour>
    <contour>
      <point x="217" y="301" type="move" name="top"/>
    </contour>
  </outline>
</glyph>
<glyph name="zero.osf" format="1">
  <advance width="522"/>
  <outline>
    <contour>
      <point x="492" y="383"/>
      <point x="391" y="467"/>
      <point x="256" y="467" type="curve" smooth="yes"/>
      <point x="120" y="467"/>
      <point x="19" y="383"/>
      <point x="19" y="229" type="curve" smooth="yes"/>
      <point x="19" y="76"/>
      <point x="120" y="-9"/>
      <point x="256" y="-9" type="curve" smooth="yes"/>
      <point x="391" y="-9"/>
      <point x="492" y="76"/>
      <point x="492" y="229" type="curve" smooth="yes"/>
    </contour>
    <contour>
      <point x="160" y="354"/>
      <point x="200" y="417"/>
      <point x="256" y="417" type="curve" smooth="yes"/>
      <point x="311" y="417"/>
      <point x="351" y="354"/>
      <point x="351" y="229" type="curve" smooth="yes"/>
      <point x="351" y="104"/>
      <point x="311" y="41"/>
      <point x="256" y="41" type="curve" smooth="yes"/>
      <point x="200" y="41"/>
      <point x="160" y="104"/>
      <point x="160" y="229" type="curve" smooth="yes"/>
    </contour>
  </outline>
</glyph>
